<svg width="512" height="512" xmlns="http://www.w3.org/2000/svg" preserveAspectRatio="xMidYMid meet" version="1.0">

 <g>
  <title>Layer 1</title>
  <g id="svg_1" fill="#000000" transform="translate(0 512) scale(0.1 -0.1)">
   <path fill="#007fff" id="svg_2" d="m2370,5113c-371,-35 -653,-114 -961,-269c-406,-203 -782,-548 -1029,-944c-179,-286 -309,-655 -362,-1025c-17,-118 -17,-512 0,-630c42,-295 120,-553 242,-800c137,-280 272,-468 494,-691c221,-220 412,-357 681,-489c188,-92 309,-137 500,-185c500,-126 1002,-102 1490,71c150,53 408,183 540,271c302,202 573,480 769,788c72,113 188,353 235,486c235,662 194,1372 -115,1993c-124,250 -263,447 -458,648c-214,222 -430,379 -711,518c-296,146 -572,225 -900,255c-102,9 -333,11 -415,3zm545,-342c628,-106 1158,-448 1511,-977c179,-267 296,-573 351,-909c24,-153 24,-497 0,-650c-108,-668 -474,-1222 -1042,-1580c-243,-153 -537,-261 -850,-312c-154,-24 -497,-24 -650,1c-657,107 -1198,456 -1557,1006c-168,257 -281,557 -335,885c-24,153 -24,497 0,650c81,497 291,912 636,1255c382,381 862,605 1401,654c108,10 418,-4 535,-23z"/>
   <path fill="#007fff" id="svg_3" d="m3620,3510c-14,-6 -366,-351 -782,-768l-758,-757l-282,282c-305,304 -307,305 -395,288c-49,-9 -109,-69 -118,-118c-17,-90 -23,-83 363,-469c386,-386 378,-380 469,-363c34,6 132,100 871,838c605,605 835,841 843,866c22,67 -2,139 -63,184c-31,23 -111,32 -148,17z"/>
  </g>
 </g>
</svg>