<?xml version="1.0" standalone="no"?>
<!DOCTYPE svg PUBLIC "-//W3C//DTD SVG 20010904//EN"
 "http://www.w3.org/TR/2001/REC-SVG-20010904/DTD/svg10.dtd">
<svg version="1.0" xmlns="http://www.w3.org/2000/svg"
 width="512.000000pt" height="512.000000pt" viewBox="0 0 512.000000 512.000000"
 preserveAspectRatio="xMidYMid meet">

<g transform="translate(0.000000,512.000000) scale(0.100000,-0.100000)"
fill="#000000" stroke="none">
<path d="M1877 5050 c-3 -8 -19 -89 -37 -180 -153 -775 -324 -1109 -678 -1323
-198 -120 -514 -222 -952 -307 -91 -17 -172 -34 -180 -37 -8 -3 69 -23 172
-43 640 -129 952 -256 1172 -476 207 -207 344 -545 461 -1131 19 -98 38 -189
41 -203 4 -16 21 47 49 185 131 644 247 929 469 1151 222 221 498 334 1145
469 113 23 199 45 191 48 -8 3 -98 22 -200 42 -591 117 -925 253 -1136 464
-215 214 -337 510 -464 1126 -26 127 -50 223 -53 215z"/>
<path d="M3916 2390 c-109 -514 -166 -665 -307 -815 -137 -144 -310 -218 -719
-305 -79 -17 -145 -32 -147 -34 -2 -2 59 -15 134 -30 367 -72 580 -158 715
-289 138 -135 218 -323 294 -691 19 -93 36 -171 37 -173 2 -1 20 80 41 180 84
405 187 619 358 740 141 100 310 162 605 223 100 21 181 39 180 41 -2 1 -80
18 -173 37 -368 76 -556 156 -691 294 -130 134 -211 331 -283 689 -37 180 -35
176 -44 133z"/>
</g>
</svg>
