<svg width="512" height="512" xmlns="http://www.w3.org/2000/svg" preserveAspectRatio="xMidYMid meet" version="1.0">

 <g>
  <title>Layer 1</title>
  <g id="svg_1" fill="#000000" transform="translate(0 512) scale(0.1 -0.1)">
   <path fill="#ffffff" id="svg_2" d="m2355,5110c-521,-44 -973,-218 -1375,-528c-104,-80 -321,-297 -413,-412c-475,-592 -658,-1315 -522,-2056c94,-508 333,-972 693,-1346c408,-422 922,-675 1527,-749c145,-18 473,-16 630,5c584,76 1088,330 1492,750c727,756 935,1880 521,2816c-133,300 -305,547 -558,800c-394,395 -877,629 -1453,705c-139,19 -412,26 -542,15zm433,-401c805,-87 1490,-613 1787,-1373c127,-323 170,-697 121,-1041c-146,-1030 -856,-1738 -1871,-1866c-120,-15 -405,-15 -530,0c-900,110 -1585,701 -1809,1563c-106,404 -110,747 -15,1116c220,854 968,1502 1849,1601c110,12 356,13 468,0z"/>
   <path fill="#ffffff" id="svg_3" d="m2475,4141c-50,-22 -91,-69 -105,-119c-6,-23 -10,-255 -10,-638c0,-598 0,-601 -21,-620c-35,-32 -71,-114 -76,-175c-14,-154 94,-294 249,-321l63,-11l325,-322c179,-178 339,-330 355,-338c77,-39 159,-29 222,26c67,59 90,147 58,225c-11,25 -124,146 -344,367l-329,330l-5,52c-6,56 -43,137 -76,167c-21,19 -21,22 -21,620c0,383 -4,615 -10,638c-22,79 -103,138 -190,138c-25,0 -63,-9 -85,-19z"/>
  </g>
 </g>
</svg>