<svg width="512" height="512" xmlns="http://www.w3.org/2000/svg" preserveAspectRatio="xMidYMid meet" version="1.0">

 <g>
  <title>Layer 1</title>
  <g id="svg_1" fill="#000000" transform="translate(0 512) scale(0.1 -0.1)">
   <path fill="#666666" id="svg_2" d="m2419,5075c-88,-20 -167,-56 -237,-107c-143,-105 -1944,-1579 -2004,-1639c-144,-148 -206,-360 -163,-564c26,-120 84,-227 173,-314c129,-128 263,-185 437,-185c148,0 262,34 370,112c28,19 389,312 803,649c414,338 756,612 760,609c4,-2 354,-287 778,-633c425,-345 800,-645 835,-666c102,-60 184,-81 319,-82c94,0 128,4 185,23c102,34 193,92 266,169c78,83 110,135 144,238c69,203 29,423 -108,595c-51,65 -2007,1663 -2108,1723c-35,21 -93,47 -129,58c-86,27 -233,34 -321,14z"/>
   <path fill="#666666" id="svg_3" d="m2420,2855c-82,-18 -149,-48 -226,-100c-106,-73 -2000,-1622 -2043,-1672c-23,-26 -60,-84 -82,-128c-91,-184 -91,-372 1,-564c104,-216 356,-365 590,-347c41,3 99,11 128,17c129,30 175,64 988,727c689,562 778,631 793,619c70,-59 1480,-1204 1528,-1241c129,-98 271,-142 428,-133c260,15 480,185 562,432c36,110 39,276 6,380c-32,101 -88,190 -168,268c-95,91 -1979,1623 -2048,1665c-129,78 -315,109 -457,77z"/>
  </g>
 </g>
</svg>