<svg width="512" height="512" xmlns="http://www.w3.org/2000/svg" preserveAspectRatio="xMidYMid meet" version="1.0">

 <g>
  <title>Layer 1</title>
  <g id="svg_1" fill="#000000" transform="translate(0 512) scale(0.1 -0.1)">
   <path fill="#ffffff" id="svg_2" d="m665,4439c-88,-10 -194,-46 -282,-94c-87,-49 -217,-178 -271,-270c-52,-90 -91,-199 -77,-220c9,-12 2488,-1529 2521,-1542c13,-5 2514,1520 2529,1542c7,11 3,35 -13,83c-37,108 -97,199 -191,292c-71,71 -102,94 -181,132c-186,91 18,82 -2095,84c-1029,1 -1902,-2 -1940,-7z"/>
   <path fill="#ffffff" id="svg_3" d="m0,2368c0,-1084 0,-1071 50,-1207c85,-227 296,-411 539,-468c72,-17 183,-18 1971,-18c1788,0 1899,1 1971,18c249,58 461,246 543,484c46,131 47,144 44,1200l-3,1002l-1190,-725c-655,-399 -1211,-736 -1237,-750c-68,-35 -149,-41 -218,-17c-31,11 -586,343 -1255,752c-660,404 -1203,735 -1207,738c-5,2 -8,-452 -8,-1009z"/>
  </g>
 </g>
</svg>