<?xml version="1.0" encoding="iso-8859-1"?>
<!-- Uploaded to: SVG Repo, www.svgrepo.com, Generator: SVG Repo Mixer Tools -->
<svg fill="#000000" height="800px" width="800px" version="1.1" id="Capa_1" xmlns="http://www.w3.org/2000/svg" xmlns:xlink="http://www.w3.org/1999/xlink" 
	 viewBox="0 0 463 463" xml:space="preserve">
<g>
	<path d="M409.264,394.257L284.965,145.659c-3.902-7.804-5.964-16.542-5.964-25.268V23.5c0-4.687,3.813-8.5,8.5-8.5
		c0.007,0,0.013-0.001,0.02-0.001S287.533,15,287.54,15c4.142,0,7.5-3.358,7.5-7.5s-3.358-7.5-7.5-7.5h-0.04h-112
		c-4.142,0-7.5,3.358-7.5,7.5s3.358,7.5,7.5,7.5c4.687,0,8.5,3.813,8.5,8.5v96.892c0,8.726-2.063,17.463-5.965,25.268
		L53.737,394.257c-7.417,14.832-6.639,32.108,2.079,46.215C64.533,454.579,79.638,463,96.221,463h270.557
		c16.583,0,31.688-8.421,40.406-22.528C415.903,426.366,416.68,409.089,409.264,394.257z M394.425,432.586
		c-5.965,9.651-16.3,15.414-27.646,15.414H96.221c-11.346,0-21.681-5.762-27.646-15.414c-5.965-9.652-6.497-21.473-1.423-31.621
		l124.299-248.598c4.938-9.876,7.549-20.934,7.549-31.976V23.5c0-2.996-0.563-5.863-1.59-8.5h68.181
		c-1.027,2.637-1.59,5.504-1.59,8.5v96.892c0,11.042,2.61,22.1,7.548,31.976l124.299,248.598
		C400.922,411.114,400.39,422.935,394.425,432.586z"/>
	<path d="M330.431,308.146c-1.271-2.541-3.867-4.146-6.708-4.146H139.278c-2.841,0-5.438,1.605-6.708,4.146L82.358,408.569
		c-2.456,4.913-2.208,10.41,0.679,15.08C85.924,428.32,90.73,431,96.221,431h270.558c5.492,0,10.297-2.68,13.185-7.351
		c2.888-4.671,3.135-10.168,0.679-15.081L330.431,308.146z M367.204,415.763c-0.087,0.142-0.16,0.219-0.137,0.211
		c-0.019,0.005-0.106,0.026-0.289,0.026H96.221c-0.136,0-0.219-0.012-0.246-0.012c-0.003,0-0.006,0-0.007,0.001
		c-0.031-0.03-0.095-0.102-0.173-0.228c-0.086-0.139-0.12-0.242-0.127-0.215c0.004-0.02,0.024-0.106,0.106-0.27L143.913,319h175.175
		l48.138,96.276c0.069,0.139,0.095,0.223,0.104,0.232C367.317,415.548,367.281,415.638,367.204,415.763z"/>
	<path d="M183.5,352c-1.97,0-3.91,0.8-5.3,2.2c-1.4,1.39-2.2,3.33-2.2,5.3c0,1.97,0.8,3.91,2.2,5.3c1.39,1.4,3.33,2.2,5.3,2.2
		c1.97,0,3.91-0.8,5.3-2.2c1.4-1.39,2.2-3.33,2.2-5.3c0-1.97-0.8-3.91-2.2-5.3C187.41,352.8,185.47,352,183.5,352z"/>
	<path d="M231.5,376c-1.97,0-3.91,0.8-5.3,2.2c-1.4,1.39-2.2,3.33-2.2,5.3c0,1.97,0.8,3.91,2.2,5.3c1.39,1.4,3.33,2.2,5.3,2.2
		c1.97,0,3.91-0.8,5.3-2.2c1.4-1.39,2.2-3.33,2.2-5.3c0-1.97-0.8-3.91-2.2-5.3C235.41,376.8,233.47,376,231.5,376z"/>
	<path d="M242.2,266.2c-1.4,1.39-2.2,3.33-2.2,5.3c0,1.97,0.8,3.91,2.2,5.3c1.39,1.4,3.33,2.2,5.3,2.2c1.97,0,3.91-0.8,5.3-2.2
		c1.4-1.39,2.2-3.33,2.2-5.3c0-1.97-0.8-3.91-2.2-5.3c-1.39-1.4-3.33-2.2-5.3-2.2C245.53,264,243.59,264.8,242.2,266.2z"/>
	<path d="M215.5,215c1.97,0,3.91-0.8,5.3-2.2c1.4-1.39,2.2-3.33,2.2-5.3c0-1.97-0.8-3.91-2.2-5.3c-1.39-1.4-3.33-2.2-5.3-2.2
		c-1.97,0-3.91,0.8-5.3,2.2c-1.4,1.39-2.2,3.32-2.2,5.3s0.8,3.91,2.2,5.3C211.59,214.2,213.53,215,215.5,215z"/>
	<path d="M279.5,344c-1.97,0-3.91,0.8-5.3,2.2c-1.4,1.39-2.2,3.33-2.2,5.3c0,1.97,0.8,3.91,2.2,5.3c1.39,1.4,3.33,2.2,5.3,2.2
		c1.97,0,3.91-0.8,5.3-2.2c1.4-1.39,2.2-3.33,2.2-5.3c0-1.97-0.8-3.91-2.2-5.3C283.41,344.8,281.47,344,279.5,344z"/>
	<path d="M242.927,166.678l53.887,107.773c1.314,2.628,3.962,4.147,6.714,4.147c1.127,0,2.271-0.255,3.348-0.793
		c3.705-1.852,5.207-6.357,3.354-10.062L256.343,159.97c-1.852-3.705-6.357-5.208-10.062-3.354
		C242.576,158.468,241.074,162.974,242.927,166.678z"/>
	<path d="M240.699,143.006c0.394,0,0.794-0.031,1.195-0.095c4.09-0.655,6.875-4.501,6.22-8.592c-0.739-4.614-1.114-9.3-1.114-13.927
		c0-4.142-3.358-7.5-7.5-7.5s-7.5,3.358-7.5,7.5c0,5.419,0.438,10.903,1.302,16.299
		C233.893,140.379,237.079,143.006,240.699,143.006z"/>
</g>
</svg>