<svg width="512" height="512" xmlns="http://www.w3.org/2000/svg" preserveAspectRatio="xMidYMid meet" version="1.0">

 <g>
  <title>Layer 1</title>
  <g id="svg_1" fill="#000000" transform="translate(0 512) scale(0.1 -0.1)">
   <path fill="#ffffff" id="svg_2" d="m1238,4595c-72,-40 -60,-250 22,-364c20,-29 20,-35 20,-1671c0,-1636 0,-1642 -20,-1671c-57,-79 -86,-234 -60,-313c23,-71 -73,-66 1360,-66c1433,0 1337,-5 1360,66c26,79 -3,234 -60,313c-20,29 -20,35 -20,1671c0,1636 0,1642 20,1671c57,79 86,234 60,313c-23,71 74,66 -1362,66c-1110,-1 -1297,-3 -1320,-15zm2512,-187c0,-42 -31,-93 -72,-118c-32,-20 -53,-20 -1118,-20c-1065,0 -1086,0 -1118,20c-41,25 -72,76 -72,118l0,32l1190,0l1190,0l0,-32zm-2209,-593c5,-238 9,-292 27,-361c63,-243 173,-436 340,-595c97,-94 178,-149 298,-205c99,-47 114,-64 100,-119c-5,-20 -26,-34 -100,-69c-332,-155 -557,-449 -648,-844c-5,-26 -13,-171 -17,-322l-6,-275l-42,-3l-43,-3l0,1541l0,1541l43,-3l42,-3l6,-280zm1869,51c0,-254 -10,-340 -57,-469c-93,-260 -257,-446 -513,-582c-89,-47 -118,-67 -141,-101c-16,-23 -29,-47 -29,-53c0,-7 -36,-11 -102,-10l-103,0l-30,47c-27,42 -44,54 -150,107c-66,33 -147,81 -180,106c-157,122 -275,289 -341,486c-44,132 -53,209 -54,466l0,237l850,0l850,0l0,-234zm260,-1307l0,-1540l-42,3l-43,3l-6,275c-5,253 -8,283 -31,371c-94,350 -314,626 -625,782c-77,39 -103,66 -103,107c0,41 27,68 108,109c269,136 482,379 586,669c53,149 66,248 66,509c0,132 3,243 7,246c3,4 24,7 45,7l38,0l0,-1541zm-975,-141c27,-47 40,-57 140,-111c187,-100 299,-198 405,-356c42,-63 110,-199 110,-221c0,-17 -34,-4 -140,55c-142,79 -182,90 -330,90c-147,0 -188,-11 -330,-90c-125,-69 -158,-79 -265,-79c-105,0 -142,11 -249,72c-44,25 -107,56 -140,68c-33,12 -62,26 -63,31c-6,16 95,163 155,226c85,89 164,146 297,212c106,53 123,65 150,107l30,47l100,0l100,0l30,-51zm-745,-788c134,-76 194,-93 330,-94c141,0 198,15 330,89c114,64 181,85 270,85c88,0 156,-21 270,-85c92,-52 180,-85 226,-85c14,0 24,-8 28,-22c3,-13 6,-130 6,-260l0,-238l-851,0l-851,0l5,273c4,262 9,312 42,404c7,19 98,-12 195,-67zm1728,-800c41,-25 72,-76 72,-117l0,-33l-1190,0l-1190,0l0,33c0,41 31,92 72,117c32,20 53,20 1118,20c1065,0 1086,0 1118,-20z"/>
  </g>
 </g>
</svg>