<svg width="512" height="512" xmlns="http://www.w3.org/2000/svg" version="1.0" preserveAspectRatio="xMidYMid meet">
 <g>
  <title>Layer 1</title>
  <g transform="translate(0 512) scale(0.1 -0.1)" fill="#000000" id="svg_1">
   <path d="m1100,5105c-287,-43 -514,-157 -721,-364c-213,-213 -329,-451 -368,-750c-15,-117 -15,-2745 0,-2862c37,-288 148,-522 348,-733c205,-214 467,-346 770,-385c117,-15 2745,-15 2862,0c303,39 565,171 770,385c200,211 311,445 348,733c15,117 15,2745 0,2862c-39,299 -155,537 -368,750c-213,213 -451,329 -750,368c-128,17 -2778,13 -2891,-4zm2997,-452c113,-39 138,-52 231,-116c148,-102 265,-261 324,-440l33,-102l0,-1435l0,-1435l-33,-102c-59,-180 -175,-338 -327,-442c-83,-58 -146,-88 -255,-122l-75,-24l-1435,0l-1435,0l-75,24c-304,96 -499,294 -596,606c-18,57 -19,122 -19,1495c0,1373 1,1438 19,1495c67,217 183,378 354,494c93,63 236,120 337,134c17,2 667,4 1445,3l1415,-1l92,-32z" id="svg_2" fill="#f5f5f5"/>
   <path d="m3880,4256c-71,-16 -107,-35 -157,-86c-68,-67 -88,-119 -88,-225c0,-78 4,-97 27,-140c55,-104 148,-165 264,-173c85,-5 130,7 201,55c199,133 176,439 -40,542c-74,35 -133,43 -207,27z" id="svg_3" fill="#f5f5f5"/>
   <path d="m2396,3829c-483,-67 -895,-403 -1045,-855c-51,-154 -65,-243 -65,-414c0,-171 14,-260 65,-415c121,-362 433,-673 797,-795c152,-50 242,-64 412,-64c170,0 260,14 412,64c364,122 676,433 797,795c51,155 65,244 65,415c0,224 -43,407 -140,590c-185,347 -503,586 -889,665c-96,20 -314,28 -409,14zm421,-458c107,-35 136,-49 218,-104c168,-113 281,-270 346,-477c20,-65 24,-96 24,-230c0,-165 -12,-226 -71,-357c-74,-168 -249,-343 -418,-418c-130,-58 -191,-70 -356,-70c-165,0 -226,12 -356,70c-169,75 -344,250 -418,418c-59,131 -71,192 -71,357c0,134 4,165 24,230c34,108 64,171 121,254c113,164 271,277 465,334c99,29 114,31 265,27c119,-3 146,-7 227,-34z" id="svg_4" fill="#f5f5f5"/>
  </g>
 </g>

</svg>