<?xml version="1.0" standalone="no"?>
<!DOCTYPE svg PUBLIC "-//W3C//DTD SVG 20010904//EN"
 "http://www.w3.org/TR/2001/REC-SVG-20010904/DTD/svg10.dtd">
<svg version="1.0" xmlns="http://www.w3.org/2000/svg"
 width="512.000000pt" height="512.000000pt" viewBox="0 0 512.000000 512.000000"
 preserveAspectRatio="xMidYMid meet">

<g transform="translate(0.000000,512.000000) scale(0.100000,-0.100000)"
fill="#000000" stroke="none">
<path d="M1555 4727 c-99 -61 -386 -268 -475 -343 -98 -81 -270 -258 -350
-359 -284 -358 -504 -858 -624 -1415 -84 -390 -126 -907 -96 -1175 60 -529
444 -949 970 -1062 118 -25 362 -25 480 0 248 54 445 161 620 336 233 234 352
518 353 846 1 162 -11 247 -54 383 -159 499 -623 841 -1144 844 -131 0 -238
-13 -340 -42 -78 -22 -76 -34 -36 145 103 460 293 930 586 1450 257 456 267
489 110 392z"/>
<path d="M4285 4754 c-74 -38 -359 -237 -490 -342 -164 -130 -360 -342 -487
-527 -387 -560 -619 -1388 -621 -2215 -1 -216 2 -257 21 -346 127 -590 647
-997 1239 -971 312 14 577 126 799 339 198 191 318 425 359 703 36 245 0 476
-110 701 -170 349 -476 587 -857 665 -175 35 -437 24 -577 -26 -24 -8 -46 -13
-48 -11 -6 5 21 146 48 249 116 458 287 868 584 1396 161 286 195 352 195 379
0 26 -14 28 -55 6z"/>
</g>
</svg>
