<svg xmlns="http://www.w3.org/2000/svg" width="40" height="40" version="1.0">
  <path fill="#fff" d="M27.2 64C17 66.2 7.9 73.6 3.1 83.9.9 88.6.5 90.8.5 98c.1 7.2.5 9.4 2.8 14.2C9.5 125 23.6 133 37.4 131.6c29.3-3 41.5-38.2 20.4-58.8-7.5-7.3-20.1-11-30.6-8.8zM136 71.5c-10.1 3.2-17 12.9-17 24.1 0 3.4.7 7.8 1.5 9.8 2.3 5.5 7.9 11.1 13.5 13.5l4.9 2.1 177.8-.2c167.8-.3 178-.4 181-2.1 9-4.9 13.8-13 13.8-23.2-.1-10.1-4.8-17.9-14-22.8l-4-2.2-176.5-.2c-149-.1-177.2 0-181 1.2zM25 222.9c-9.3 2.9-17.7 10.1-21.9 19-3.8 8.1-3.8 20.1 0 28.2 5.6 11.9 16.1 19 29.4 19.7 10.4.5 17.3-1.9 24.8-8.8s11-14.7 11-25c0-6.2-.6-8.8-2.8-13.9-3.5-7.8-11.3-15.1-19-18-5.7-2.2-16.4-2.7-21.5-1.2zm114.3 8.1c-12.3 2.5-20.3 12.2-20.3 25 0 10.6 5.3 18.9 15 23.4l4.5 2.1h177c165 0 177.2-.1 180.6-1.7 5.4-2.5 9.6-6.4 12.7-11.7 2.3-3.9 2.7-5.7 2.7-12.1 0-6.4-.4-8.2-2.7-12.1-3.1-5.3-7.3-9.2-12.7-11.7-3.4-1.6-15.6-1.7-178.1-1.9-96 0-176.4.3-178.7.7zm-116 151c-8 2.6-16.1 9.9-20 17.8C1 404.6.6 406.8.5 414c0 7.7.3 9.2 3.3 15.2 7.3 14.8 22.9 22.3 38.4 18.3 16-4 26-16.8 26-33 .1-23.5-22.5-39.8-44.9-32.5zm110.2 11.3c-9.3 4.4-14.5 12.6-14.5 23.1 0 7.6 3.4 15.1 8.8 19.6 7.7 6.4-3.6 6 189.7 5.8l176-.3 4-2.2c9.2-4.9 13.9-12.7 14-22.8 0-10.2-4.8-18.3-13.8-23.2-3-1.7-13.2-1.8-181.2-2l-178-.3-5 2.3z"/>
</svg>
