<svg width="512" height="512" xmlns="http://www.w3.org/2000/svg" preserveAspectRatio="xMidYMid meet" version="1.0">
 <g>
  <title>Layer 1</title>
  <g id="svg_1" fill="#000000" transform="translate(0 512) scale(0.1 -0.1)">
   <path fill="#191919" id="svg_2" d="m292,4470c-102,-22 -193,-96 -241,-199c-22,-47 -26,-69 -26,-141c1,-72 5,-94 28,-142c62,-128 203,-208 341,-194c293,30 415,382 204,588c-75,73 -201,110 -306,88z"/>
   <path fill="#191919" id="svg_3" d="m1380,4395c-101,-32 -170,-129 -170,-241c0,-34 7,-78 15,-98c23,-55 79,-111 135,-135l49,-21l1778,2c1678,3 1780,4 1810,21c90,49 138,130 138,232c-1,101 -48,179 -140,228l-40,22l-1765,2c-1490,1 -1772,0 -1810,-12z"/>
   <path fill="#191919" id="svg_4" d="m270,2881c-93,-29 -177,-101 -219,-190c-38,-81 -38,-201 0,-282c56,-119 161,-190 294,-197c104,-5 173,19 248,88c75,69 110,147 110,250c0,62 -6,88 -28,139c-35,78 -113,151 -190,180c-57,22 -164,27 -215,12z"/>
   <path fill="#191919" id="svg_5" d="m1413,2800c-123,-25 -203,-122 -203,-250c0,-106 53,-189 150,-234l45,-21l1770,0c1650,0 1772,1 1806,17c54,25 96,64 127,117c23,39 27,57 27,121c0,64 -4,82 -27,121c-31,53 -73,92 -127,117c-34,16 -156,17 -1781,19c-960,0 -1764,-3 -1787,-7z"/>
   <path fill="#191919" id="svg_6" d="m253,1290c-80,-26 -161,-99 -200,-178c-23,-48 -27,-70 -28,-142c0,-77 3,-92 33,-152c73,-148 229,-223 384,-183c160,40 260,168 260,330c1,235 -225,398 -449,325z"/>
   <path fill="#191919" id="svg_7" d="m1355,1177c-93,-44 -145,-126 -145,-231c0,-76 34,-151 88,-196c77,-64 -36,-60 1897,-58l1760,3l40,22c92,49 139,127 140,228c0,102 -48,183 -138,232c-30,17 -132,18 -1812,20l-1780,3l-50,-23z"/>
  </g>
 </g>

</svg>