<?xml version="1.0" standalone="no"?>
<!DOCTYPE svg PUBLIC "-//W3C//DTD SVG 20010904//EN"
 "http://www.w3.org/TR/2001/REC-SVG-20010904/DTD/svg10.dtd">
<svg version="1.0" xmlns="http://www.w3.org/2000/svg"
 width="512.000000pt" height="512.000000pt" viewBox="0 0 512.000000 512.000000"
 preserveAspectRatio="xMidYMid meet">

<g transform="translate(0.000000,512.000000) scale(0.100000,-0.100000)"
fill="#000000" stroke="none">
<path d="M3161 4113 c-18 -9 -42 -30 -51 -46 -10 -16 -147 -317 -306 -668
-158 -352 -291 -638 -295 -637 -4 2 -108 118 -232 258 -123 141 -238 268 -256
283 -62 52 -150 45 -208 -15 -31 -33 -1400 -1960 -1457 -2051 -51 -82 -34
-172 44 -225 l33 -22 2136 2 c2118 3 2136 3 2163 23 42 30 72 98 65 148 -3 29
-230 496 -709 1458 -387 780 -712 1429 -722 1443 -40 62 -133 84 -205 49z"/>
</g>
</svg>
