<?xml version="1.0" standalone="no"?>
<!DOCTYPE svg PUBLIC "-//W3C//DTD SVG 20010904//EN"
 "http://www.w3.org/TR/2001/REC-SVG-20010904/DTD/svg10.dtd">
<svg version="1.0" xmlns="http://www.w3.org/2000/svg"
 width="512.000000pt" height="512.000000pt" viewBox="0 0 512.000000 512.000000"
 preserveAspectRatio="xMidYMid meet">

<g transform="translate(0.000000,512.000000) scale(0.100000,-0.100000)"
fill="#000000" stroke="none">
<path d="M2000 4369 c-19 -11 -42 -30 -51 -42 -20 -27 -1893 -3285 -1926
-3348 -12 -26 -23 -62 -23 -80 0 -54 37 -116 84 -144 l43 -25 2433 0 2433 0
43 25 c81 47 105 147 55 228 -46 75 -1572 2234 -1599 2263 -39 41 -105 59
-160 44 -33 -8 -77 -43 -208 -165 -91 -85 -168 -155 -172 -155 -4 1 -153 273
-332 607 -430 801 -406 760 -455 789 -52 30 -116 31 -165 3z m284 -882 c113
-210 206 -387 205 -392 -1 -13 -305 -278 -327 -286 -9 -3 -23 -4 -30 -2 -7 3
-60 65 -118 139 -107 137 -131 158 -158 148 -9 -3 -84 -115 -167 -247 -83
-133 -159 -250 -167 -259 -18 -21 -55 -24 -70 -5 -6 6 -20 36 -31 64 l-20 52
336 586 c185 322 337 585 339 585 1 0 95 -172 208 -383z m1385 -1070 c165
-235 301 -430 301 -432 0 -2 -118 118 -262 268 -143 150 -272 276 -285 281
-21 9 -41 -8 -236 -202 -282 -281 -279 -281 -275 4 l3 188 30 6 c48 10 62 21
235 183 124 117 168 152 176 144 7 -7 147 -205 313 -440z"/>
</g>
</svg>
