<svg width="360" height="360" xmlns="http://www.w3.org/2000/svg" version="1.0" preserveAspectRatio="xMidYMid meet">
 <g>
  <title>Layer 1</title>
  <g transform="translate(0 360) scale(0.1 -0.1)" fill="#000000" id="svg_1">
   <path d="m1630,2834c-14,-2 -65,-9 -115,-15c-133,-16 -264,-44 -410,-88c-297,-90 -469,-192 -534,-318c-27,-53 -38,-103 -51,-219c-12,-111 0,-195 39,-288c26,-59 26,-60 -1,-44c-37,21 -232,17 -291,-5c-47,-19 -68,-41 -60,-64c6,-17 54,-16 118,2c35,11 83,15 141,13c85,-3 88,-4 94,-28c5,-21 12,-25 40,-25c27,0 35,-5 38,-20c8,-39 23,-47 73,-40c43,6 53,3 93,-24c24,-17 49,-31 54,-31c6,0 20,-16 31,-36c15,-25 26,-34 37,-30c49,19 59,17 92,-19c36,-38 58,-43 100,-21c25,13 41,11 147,-10c320,-66 573,-89 884,-81c297,7 472,40 711,134c244,96 492,261 519,346c20,65 23,123 8,153c-61,117 -289,181 -687,193l-215,6l44,24c25,13 74,34 110,48c36,13 86,38 111,55c39,27 68,35 210,60c202,35 277,55 262,70c-8,8 -54,8 -169,-1c-87,-7 -168,-15 -180,-18c-21,-5 -23,-1 -23,30c0,19 -2,42 -5,50c-4,10 24,32 92,72c122,72 205,133 198,145c-6,10 -48,-5 -240,-87c-119,-51 -132,-55 -160,-43c-153,62 -275,96 -475,130c-99,18 -174,23 -365,25c-132,2 -251,2 -265,-1zm440,-15c224,-20 491,-79 615,-135l60,-27l-50,-22c-27,-13 -128,-59 -223,-104l-173,-82l-312,-39c-187,-24 -330,-38 -357,-34c-35,4 -67,-2 -150,-30c-58,-19 -138,-41 -178,-48c-39,-6 -72,-15 -72,-19c0,-11 48,-42 100,-65c73,-31 149,-25 245,21c72,34 97,40 255,61c96,12 177,20 179,18c2,-2 -7,-8 -20,-13c-24,-9 -311,-148 -496,-239c-122,-60 -231,-80 -340,-60c-40,7 -74,4 -154,-12c-57,-12 -108,-25 -114,-30c-5,-5 -36,-34 -68,-64c-70,-67 -92,-70 -145,-21c-120,107 -167,359 -97,512c64,141 266,259 593,348c305,83 611,111 902,84zm999,-53c-11,-10 -262,-157 -296,-173c-21,-11 -105,-57 -188,-105c-143,-81 -405,-224 -657,-357l-118,-62l0,30c0,18 -9,40 -21,52c-11,11 -19,22 -17,25c4,3 307,150 462,223c234,111 410,192 581,268c105,46 204,90 220,97c26,12 46,13 34,2zm-236,-223c-4,-22 -11,-33 -22,-33c-14,0 -14,2 -1,10c8,5 11,10 7,10c-4,0 -18,-6 -30,-14c-19,-12 -158,-33 -146,-22c2,2 44,27 94,55c96,55 107,54 98,-6zm295,-28c-11,-11 -574,-106 -621,-105c-15,1 -5,10 33,29c47,24 79,31 215,45c336,36 382,40 373,31zm-368,-94c0,-5 -12,-12 -26,-15c-15,-4 -33,-14 -41,-21c-8,-8 -21,-15 -30,-15c-14,0 -14,2 -1,23c13,19 28,25 91,36c4,0 7,-3 7,-8zm-545,-9c-31,-26 -158,-71 -217,-77c-72,-8 -68,-9 -72,38c-1,8 38,17 124,28c151,20 177,21 165,11zm435,-8c0,-24 -57,-74 -85,-74c-8,0 26,64 39,72c13,9 46,10 46,2zm-95,-54c-11,-21 -32,-38 -62,-51c-88,-37 -72,19 20,71c57,32 67,28 42,-20zm-75,22c-64,-44 -78,-82 -37,-103c14,-9 90,-14 222,-16c448,-8 715,-90 715,-220c0,-44 -51,-96 -180,-181c-197,-132 -438,-228 -695,-278c-133,-26 -155,-28 -430,-28c-309,0 -408,9 -695,60c-171,31 -194,40 -125,49c110,14 119,17 157,55c35,34 38,42 38,93l0,55l318,168c174,92 391,208 482,257c143,78 200,103 245,105c6,1 -1,-7 -15,-16zm-570,-20c0,-23 -5,-28 -26,-30c-15,-1 -54,-6 -88,-12c-33,-5 -76,-10 -93,-10c-28,0 -33,4 -33,25c0,26 1,27 130,44c110,15 110,14 110,-17zm-262,6c7,-7 12,-26 12,-42c0,-29 -5,-33 -93,-70c-83,-34 -98,-38 -152,-33c-68,6 -97,15 -90,27c3,4 -11,11 -30,14c-43,8 -56,26 -18,26c37,0 196,43 253,69c52,23 101,26 118,9zm131,-212c6,-8 14,-29 16,-48c5,-40 28,-23 -217,-152c-125,-66 -128,-67 -128,-42c0,13 -12,39 -26,56c-15,17 -25,32 -23,34c17,16 329,165 345,165c12,1 27,-5 33,-13zm-1194,-185c9,-19 30,-48 46,-65c25,-27 27,-32 11,-38c-9,-4 -22,-7 -28,-7c-23,-2 -85,170 -83,229c1,17 7,6 18,-30c10,-30 26,-70 36,-89zm808,9c32,-28 55,-80 36,-80c-5,0 -9,4 -9,10c0,5 -18,23 -40,39c-21,15 -36,32 -32,36c4,5 -1,5 -11,2c-26,-10 -46,4 -21,14c32,13 42,10 77,-21zm-308,10c10,-16 -58,-81 -100,-96c-22,-7 -41,-12 -43,-10c-1,2 20,29 49,60c48,53 80,69 94,46zm23,-35c-61,-59 -85,-58 -28,0c24,25 51,45 60,45c9,0 -3,-18 -32,-45zm-178,-48c-78,-76 -70,-58 14,30c27,29 52,50 55,47c3,-2 -28,-37 -69,-77zm270,75c0,-10 -54,-42 -71,-42c-7,0 -3,10 11,25c22,24 60,34 60,17zm-302,-74c-35,-40 -83,-99 -106,-130c-33,-46 -48,-58 -69,-58l-27,0l38,39c21,22 36,44 32,49c-11,18 119,162 146,162c7,0 -14,-26 -48,-58c-33,-31 -69,-68 -80,-82c-10,-14 23,15 74,63c51,48 96,87 99,87c3,0 -23,-33 -59,-72zm402,67c0,-3 -22,-19 -50,-36c-27,-17 -50,-33 -50,-35c0,-6 32,11 83,43c41,26 64,24 31,-3c-18,-14 -18,-15 4,-4c29,14 58,5 78,-25c20,-31 16,-36 -51,-74c-30,-17 -55,-33 -55,-36c0,-8 61,24 97,51c34,26 43,29 43,15c0,-18 -122,-102 -196,-135c-99,-43 -156,-53 -173,-32c-11,13 -10,17 5,22c33,10 114,47 111,50c-2,2 -34,-8 -73,-21c-38,-14 -65,-25 -61,-25c4,0 -6,-15 -23,-32c-17,-18 -40,-48 -53,-65c-12,-18 -28,-33 -34,-33c-14,0 32,80 68,119c18,19 19,25 8,32c-8,5 -19,13 -25,17c-15,10 -64,77 -64,88c0,5 30,15 66,22c36,7 114,32 173,56c99,41 141,53 141,41zm2070,-30c0,-44 -207,-198 -380,-283c-290,-143 -635,-212 -990,-198c-185,8 -334,17 -339,22c-3,2 1,10 7,16c23,23 12,31 -12,9c-24,-22 -26,-23 -115,-10c-50,7 -91,17 -91,22c0,4 -5,5 -10,2c-16,-10 -100,6 -100,19c0,20 48,59 64,53c9,-4 80,-15 158,-26c190,-27 486,-44 628,-37c125,6 285,22 297,29c5,3 32,8 61,11c30,3 58,8 62,11c5,3 55,19 111,36c94,28 146,47 269,101c55,24 52,22 180,102c58,36 123,81 145,100c45,39 55,43 55,21zm-2957,-91c1,-4 -6,-8 -15,-10c-21,-3 -23,7 -6,24c12,12 15,9 21,-14zm57,15c0,-5 6,-7 13,-3c9,5 9,4 0,-6c-7,-8 -21,-14 -32,-15c-16,-1 -17,1 -8,17c13,20 27,24 27,7zm-126,-11c-5,-8 -2,-9 10,-5c14,6 15,3 6,-13c-13,-25 -32,-27 -23,-2c6,15 5,16 -13,2c-19,-14 -19,-14 0,8c20,23 32,30 20,10zm-79,-29c-20,-18 -38,-29 -41,-26c-9,9 43,57 61,57c10,0 3,-11 -20,-31zm291,19c4,-7 4,-10 -1,-6c-4,4 -14,3 -22,-4c-15,-12 -28,-5 -18,11c9,15 32,14 41,-1zm66,-7c12,6 18,6 18,-1c0,-5 -4,-10 -10,-10c-5,0 -15,-10 -21,-22c-9,-18 -4,-16 23,10c31,29 68,43 68,25c0,-5 -13,-22 -28,-39c-25,-29 -30,-31 -61,-22c-25,7 -31,12 -22,21c16,16 14,32 -2,18c-18,-14 -30,-2 -15,16c7,9 15,10 21,4c7,-7 16,-7 29,0zm108,-9c0,-4 -16,-24 -37,-43l-36,-34l29,42c27,40 44,53 44,35zm154,-36c-16,-19 -35,-37 -43,-41c-15,-6 -8,4 43,62c31,37 31,17 0,-21zm526,-56c-29,-37 -65,-58 -77,-46c-3,3 19,35 48,72c50,62 54,64 57,40c2,-18 -7,-39 -28,-66zm-480,66c0,-7 -9,-25 -20,-39c-24,-30 -24,-34 -6,-34c8,0 12,5 10,12c-3,6 4,19 15,29c18,16 19,16 17,-1c-1,-12 5,-17 17,-15c22,4 21,-7 -4,-38c-48,-60 -59,-82 -20,-40c46,49 45,41 -2,-29c-29,-43 -31,-44 -39,-21c-6,16 -4,30 7,46c17,27 19,38 5,29c-5,-3 -7,0 -4,8c4,12 -2,14 -30,10c-20,-2 -36,-2 -36,2c0,11 72,95 81,95c5,0 9,-6 9,-14zm-227,-43c-15,-21 -28,-40 -30,-42c-2,-2 -6,-1 -10,2c-6,6 54,77 64,77c2,0 -8,-17 -24,-37zm111,-8c-14,-19 -29,-35 -31,-35c-5,0 7,18 36,53c26,31 23,18 -5,-18zm559,23c-53,-70 -78,-98 -86,-98c-5,0 -2,11 7,25c22,33 11,32 -20,-2l-26,-28l21,31c11,17 27,37 36,44c13,11 15,10 9,-6c-5,-13 4,-9 27,14c34,33 49,42 32,20zm-151,-97c-23,-21 -42,-45 -42,-53c0,-17 -44,-60 -79,-78l-24,-13l24,31c87,109 116,141 134,150c35,17 30,2 -13,-37zm-360,15c19,-29 10,-31 -40,-11c-29,13 -34,18 -22,25c17,11 51,3 62,-14zm166,-49c-13,-19 -31,-34 -40,-34c-19,1 -17,7 26,61c38,46 48,26 14,-27zm101,-22c-56,-68 -79,-88 -79,-67c0,4 18,34 40,67c34,52 57,70 93,74c5,1 -20,-33 -54,-74zm-57,43c-7,-7 -12,-17 -12,-22c1,-6 10,0 21,13c35,42 29,17 -9,-38c-20,-29 -38,-47 -40,-41c-2,6 3,19 12,29c23,26 20,37 -5,15c-21,-19 -21,-18 1,19c12,20 27,37 33,37c7,0 7,-4 -1,-12zm246,-55c48,-7 52,-20 18,-52l-25,-23l-70,17c-39,9 -71,19 -71,21c0,2 5,15 12,29c11,25 16,26 53,20c22,-3 59,-9 83,-12z" id="svg_2" fill="#f5f5f5"/>
   <path d="m1603,2793c9,-2 25,-2 35,0c9,3 1,5 -18,5c-19,0 -27,-2 -17,-5z" id="svg_3" fill="#f5f5f5"/>
   <path d="m1525,2780c-25,-11 1,-11 35,0c20,6 21,8 5,8c-11,0 -29,-3 -40,-8z" id="svg_4" fill="#f5f5f5"/>
   <path d="m2358,2733c6,-2 18,-2 25,0c6,3 1,5 -13,5c-14,0 -19,-2 -12,-5z" id="svg_5" fill="#f5f5f5"/>
   <path d="m2408,2723c7,-3 16,-2 19,1c4,3 -2,6 -13,5c-11,0 -14,-3 -6,-6z" id="svg_6" fill="#f5f5f5"/>
   <path d="m1898,2639c-42,-5 -87,-14 -100,-19c-21,-9 -20,-10 7,-5c57,10 263,18 289,11c33,-8 66,-40 66,-64c0,-20 -79,-61 -179,-92c-61,-19 -122,-13 -202,22c-51,22 -65,47 -48,82c10,20 10,21 -5,2c-34,-42 -14,-72 69,-104c81,-32 128,-36 187,-16c88,29 178,72 184,89c11,27 -5,64 -34,79c-37,19 -142,26 -234,15z" id="svg_7" fill="#f5f5f5"/>
   <path d="m1300,2574c-36,-7 -84,-12 -108,-13c-125,-3 -217,-104 -145,-160c54,-43 117,-53 273,-42c124,9 148,14 186,36c46,27 74,59 74,86c0,25 -74,99 -101,100c-89,4 -121,3 -179,-7zm216,-26c11,-9 27,-30 37,-46c17,-30 17,-31 -8,-60c-39,-46 -79,-59 -205,-66c-103,-5 -113,-4 -96,9c11,8 16,15 12,15c-4,0 -20,-9 -34,-20c-29,-23 -60,-21 -128,10c-82,37 -85,78 -9,123c40,24 69,32 140,39c49,5 92,11 95,14c3,3 44,4 91,2c64,-2 92,-7 105,-20z" id="svg_8" fill="#f5f5f5"/>
   <path d="m620,2399c-12,-23 -20,-43 -18,-45c3,-2 14,17 26,41c27,56 20,60 -8,4z" id="svg_9" fill="#f5f5f5"/>
   <path d="m894,2260c-68,-6 -89,-12 -127,-39c-46,-32 -51,-39 -61,-102c-6,-34 -4,-37 32,-53c32,-15 63,-17 188,-14c139,3 151,5 181,27c40,30 48,49 28,71c-22,24 -19,34 15,47c40,15 38,41 -5,59c-36,15 -112,16 -251,4zm209,-7c4,-3 2,-12 -5,-21c-10,-14 -9,-14 8,1c20,17 54,15 54,-3c0,-5 -13,-18 -30,-30c-29,-21 -31,-44 -6,-63c7,-5 -1,-18 -22,-37c-33,-30 -59,-40 -46,-17c6,9 3,8 -9,-1c-21,-18 -63,-11 -59,8c3,10 -5,7 -20,-7c-21,-20 -35,-23 -105,-23c-98,0 -159,20 -144,49c6,10 8,27 5,38c-8,31 76,93 127,93c20,0 46,3 56,7c14,5 13,1 -7,-23l-25,-29l31,28c17,15 33,25 36,22c3,-3 16,-1 29,4c23,10 116,12 132,4z" id="svg_10" fill="#f5f5f5"/>
   <path d="m889,2183l-34,-38l38,34c20,19 37,36 37,38c0,8 -8,0 -41,-34z" id="svg_11" fill="#f5f5f5"/>
   <path d="m929,2173l-34,-38l38,34c34,33 42,41 34,41c-2,0 -19,-17 -38,-37z" id="svg_12" fill="#f5f5f5"/>
   <path d="m1014,2138l-29,-33l33,29c17,17 32,31 32,33c0,8 -8,1 -36,-29z" id="svg_13" fill="#f5f5f5"/>
   <path d="m1019,2103c-13,-16 -12,-17 4,-4c9,7 17,15 17,17c0,8 -8,3 -21,-13z" id="svg_14" fill="#f5f5f5"/>
   <path d="m1700,2240c-8,-5 -10,-10 -5,-10c6,0 17,5 25,10c8,5 11,10 5,10c-5,0 -17,-5 -25,-10z" id="svg_15" fill="#f5f5f5"/>
   <path d="m2778,2223c7,-3 16,-2 19,1c4,3 -2,6 -13,5c-11,0 -14,-3 -6,-6z" id="svg_16" fill="#f5f5f5"/>
   <path d="m2270,2164c-106,-29 -149,-74 -120,-128c37,-70 259,-107 420,-70c81,18 131,48 145,88c9,25 6,31 -26,61c-27,24 -55,37 -107,49c-87,20 -238,20 -312,0zm363,-36c49,-23 78,-51 66,-62c-2,-2 -42,3 -89,11c-97,16 -325,12 -343,-6c-6,-6 -21,-11 -34,-11c-13,0 -26,-7 -29,-15c-10,-24 -33,-17 -40,11c-9,35 15,57 91,84c51,17 79,20 190,17c116,-2 136,-6 188,-29zm-16,-69c71,-12 76,-24 22,-51c-96,-48 -301,-51 -412,-6c-36,14 -21,33 42,52c57,18 259,20 348,5z" id="svg_17" fill="#f5f5f5"/>
   <path d="m3232,1962c-30,-30 -45,-49 -35,-44c21,12 99,90 92,94c-2,2 -28,-21 -57,-50z" id="svg_18" fill="#f5f5f5"/>
   <path d="m2627,1889c-207,-10 -247,-23 -267,-85c-15,-44 -8,-52 51,-62c37,-6 46,-12 58,-40c14,-31 16,-32 75,-32c66,0 149,22 236,63c30,14 76,33 101,41c66,24 87,41 73,62c-35,57 -80,65 -327,53z" id="svg_19" fill="#f5f5f5"/>
   <path d="m1970,1879c-30,-5 -83,-6 -118,-3c-84,8 -292,-21 -299,-42c-4,-12 25,-12 47,0c8,5 -1,-7 -19,-27c-19,-21 -36,-37 -36,-37c-1,0 -2,7 -2,15c0,8 5,11 10,8c6,-4 7,-1 2,7c-6,10 -11,9 -22,-5c-20,-28 -16,-44 12,-55c14,-5 25,-17 25,-28c0,-55 84,-78 277,-74c160,2 237,18 378,75c79,33 83,55 22,115c-62,61 -132,74 -277,51zm-168,-31c-7,-7 -12,-8 -12,-2c0,6 3,14 7,17c3,4 9,5 12,2c2,-3 -1,-11 -7,-17zm307,-25c-30,-26 -84,-77 -122,-112c-65,-62 -96,-76 -63,-29c27,39 200,187 220,188c13,0 2,-14 -35,-47zm-301,-70c-59,-59 -110,-104 -114,-100c-4,4 29,43 72,88c111,115 116,119 133,119c9,0 -32,-48 -91,-107zm-158,90c0,-5 -13,-17 -28,-27l-27,-19l24,26c26,28 31,32 31,20zm12,-46c-55,-55 -61,-88 -8,-40c17,16 23,19 13,7c-9,-11 -17,-25 -17,-30c0,-5 26,20 58,55c43,48 61,61 67,51c5,-8 4,-11 -2,-7c-6,4 -37,-23 -68,-59c-32,-35 -60,-62 -63,-59c-3,3 -14,-3 -24,-12c-18,-16 -18,-16 -12,2c6,14 4,16 -6,10c-10,-6 -11,-4 -4,6c4,8 9,20 11,28c2,17 83,101 97,101c6,0 -13,-24 -42,-53zm303,-8c-33,-33 -69,-65 -80,-71c-11,-5 12,22 51,61c40,39 75,71 80,71c5,0 -18,-27 -51,-61zm249,52c3,-5 -6,-17 -20,-26c-26,-17 -26,-10 -1,23c11,14 14,15 21,3zm-14,-61c-34,-43 -101,-102 -108,-95c-4,4 128,134 136,135c2,0 -11,-18 -28,-40zm-240,-25c-24,-25 -46,-45 -49,-45c-3,0 15,20 39,45c24,25 46,45 49,45c3,0 -15,-20 -39,-45zm-360,16c-11,-21 -30,-37 -30,-25c0,8 30,44 37,44c2,0 -1,-9 -7,-19zm670,12c0,-10 -42,-53 -53,-53c-4,0 2,13 15,29c22,29 38,39 38,24zm-200,-58c-45,-46 -62,-58 -39,-27c29,38 63,72 73,72c6,0 -10,-20 -34,-45zm-240,22c0,-2 -17,-19 -37,-38l-38,-34l34,38c33,34 41,42 41,34zm-140,-20c0,-2 -12,-14 -27,-28l-28,-24l24,28c23,25 31,32 31,24z" id="svg_20" fill="#f5f5f5"/>
   <path d="m2298,1573c7,-3 16,-2 19,1c4,3 -2,6 -13,5c-11,0 -14,-3 -6,-6z" id="svg_21" fill="#f5f5f5"/>
   <path d="m2198,1563c12,-2 30,-2 40,0c9,3 -1,5 -23,4c-22,0 -30,-2 -17,-4z" id="svg_22" fill="#f5f5f5"/>
   <path d="m1565,2311c-33,-16 -55,-29 -50,-29c14,0 132,56 120,57c-5,1 -37,-12 -70,-28z" id="svg_23" fill="#f5f5f5"/>
   <path d="m1595,2280c-3,-6 1,-7 9,-4c18,7 21,14 7,14c-6,0 -13,-4 -16,-10z" id="svg_24" fill="#f5f5f5"/>
   <path d="m1033,1940c-23,-22 -39,-40 -35,-40c5,0 26,18 47,40c50,51 43,51 -12,0z" id="svg_25" fill="#f5f5f5"/>
   <path d="m929,1750c0,-3 -3,-16 -5,-30c-4,-24 -4,-24 13,-8c13,14 14,21 5,30c-7,7 -12,10 -13,8z" id="svg_26" fill="#f5f5f5"/>
   <path d="m298,1667c-48,-25 -101,-50 -118,-55c-38,-14 -48,-37 -25,-62c30,-33 85,-26 177,23l82,42l124,2c121,1 152,9 137,33c-6,9 -10,8 -17,-4c-12,-21 -29,-21 -21,1c5,13 2,15 -11,10c-11,-4 -15,-3 -11,4c4,6 13,8 21,5c8,-3 14,-1 14,3c0,17 -66,32 -165,38l-100,5l-87,-45zm115,10c-65,-82 -98,-113 -87,-80c4,10 -7,2 -24,-17c-17,-19 -31,-30 -32,-24c0,6 11,21 25,34c14,13 25,28 25,34c0,5 -14,-3 -31,-20l-31,-29l31,47c18,26 37,50 42,54c18,11 23,-5 6,-24c-9,-10 -13,-23 -8,-30c5,-8 17,3 39,33c17,25 39,45 48,45c13,0 13,-3 -3,-23zm87,9c0,-15 -55,-66 -71,-66c-11,0 -6,10 25,53c21,29 46,36 46,13zm100,-4c0,-13 -32,-39 -57,-46c-27,-9 -28,-3 -7,29c15,24 64,36 64,17zm-169,-19c-19,-35 -39,-58 -46,-52c-3,4 6,21 20,38c30,34 41,40 26,14zm83,-8c-9,-14 -19,-23 -22,-20c-5,4 26,45 35,45c2,0 -4,-11 -13,-25zm-256,-64c-35,-54 -50,-60 -86,-35c-18,13 -21,19 -11,30c14,17 33,19 23,2c-4,-7 4,-3 18,10c37,33 42,27 12,-15c-18,-26 -11,-21 21,15c26,29 50,51 52,48c2,-2 -11,-27 -29,-55z" id="svg_27" fill="#f5f5f5"/>
   <path d="m1991,1314c-35,-43 -61,-117 -61,-175c0,-42 11,-49 89,-55c25,-1 99,-9 164,-15c117,-13 144,-27 78,-40c-48,-10 -59,-25 -33,-46c26,-22 47,-93 28,-93c-19,0 -43,31 -54,70c-10,33 -10,34 -11,7c-2,-46 25,-87 57,-87c15,0 34,5 42,10c13,9 13,11 0,20c-13,9 -13,11 0,20c13,8 13,10 -1,10c-9,0 -21,11 -27,24c-9,21 -8,25 6,29c9,3 4,5 -13,7c-29,1 -30,2 -7,12c32,16 64,-17 71,-74l6,-43l210,2c139,2 242,8 305,18c176,31 165,26 168,68c4,52 -22,127 -61,172c-30,35 -36,37 -69,31c-19,-3 -46,-15 -58,-26c-30,-26 -37,-25 -44,5c-7,26 -51,55 -86,55c-11,0 -23,7 -26,15c-3,8 -20,19 -37,24c-63,21 -294,51 -391,51c-77,0 -103,4 -117,16c-10,9 -35,18 -57,21c-36,5 -41,2 -71,-33zm96,20l23,-6l-26,-28c-31,-32 -64,-120 -64,-167c0,-36 -10,-40 -54,-23c-17,6 -24,15 -21,28c2,11 6,36 9,56c3,20 15,55 26,76c16,31 26,40 48,41c15,0 21,3 15,6c-7,2 -13,9 -13,14c0,10 25,12 57,3zm83,-37c0,-1 -9,-19 -19,-40c-10,-20 -25,-67 -32,-103c-12,-58 -15,-65 -33,-60c-12,3 -27,6 -35,6c-20,0 -9,95 19,153c21,44 25,47 61,47c21,0 39,-1 39,-3zm182,-8c68,-9 88,-15 84,-25c-17,-41 -16,-46 2,-17c19,29 24,31 52,23c37,-11 33,-10 71,-10l31,0l-25,-29c-13,-16 -28,-47 -32,-68c-8,-43 -18,-53 -58,-53c-26,0 -27,1 -21,43c4,23 13,53 21,65c8,13 13,26 10,28c-9,9 -47,-83 -47,-114c0,-26 -5,-33 -27,-39c-33,-9 -279,-11 -287,-2c-10,9 22,148 41,180c20,34 42,36 185,18zm296,-55c30,-21 28,-36 -4,-28c-19,5 -25,4 -20,-5c4,-6 12,-9 17,-6c15,10 10,-5 -11,-35c-12,-17 -32,-29 -51,-32l-31,-5l5,41c4,27 15,49 32,63c31,27 34,28 63,7zm85,-34c8,0 7,-3 -2,-9c-7,-5 -22,-6 -34,-3c-14,3 -18,1 -13,-7c4,-6 12,-9 17,-6c5,4 9,-1 9,-11c0,-11 -6,-15 -20,-11c-11,3 -20,1 -20,-4c0,-5 -4,-9 -10,-9c-17,0 -11,22 12,47c12,13 28,21 36,18c7,-3 19,-5 25,-5zm27,-35c0,-18 -5,-25 -20,-25c-24,0 -25,8 -3,32c21,23 23,23 23,-7zm144,8c3,-4 -4,-13 -16,-19c-21,-12 -20,-13 12,-8c34,6 37,4 63,-44c15,-27 30,-70 33,-95c6,-43 5,-45 -26,-56c-18,-6 -34,-11 -35,-11c-1,0 -5,19 -8,43c-8,59 -43,132 -73,156c-19,15 -22,22 -13,25c8,2 21,7 29,9c22,8 26,8 34,0zm-28,-89c16,-32 28,-74 28,-98c1,-38 -1,-41 -29,-44c-29,-3 -31,-1 -56,75c-14,43 -29,85 -33,95c-5,11 -2,18 11,21c44,11 52,6 79,-49zm-102,23c19,-28 41,-90 50,-138c8,-46 5,-47 -173,-55l-131,-7l0,29c0,48 -18,96 -47,126c-18,19 -22,28 -12,29c23,2 50,7 129,22c118,23 167,22 184,-6zm-298,-64c22,-33 40,-115 29,-133c-3,-5 -29,-10 -56,-10l-49,0l15,24c21,32 11,87 -21,117c-23,22 -24,24 -7,31c35,14 67,4 89,-29zm-96,-1c15,-12 24,-33 27,-64c5,-41 3,-48 -19,-62c-35,-23 -59,-12 -52,23c4,20 -1,35 -20,58c-23,28 -24,31 -8,46c21,22 44,21 72,-1z" id="svg_28" fill="#f5f5f5"/>
   <path d="m2018,1273c7,-3 16,-2 19,1c4,3 -2,6 -13,5c-11,0 -14,-3 -6,-6z" id="svg_29" fill="#f5f5f5"/>
   <path d="m1960,1126c0,-2 9,-6 20,-9c11,-3 18,-1 14,4c-5,9 -34,13 -34,5z" id="svg_30" fill="#f5f5f5"/>
   <path d="m2908,1113c7,-3 16,-2 19,1c4,3 -2,6 -13,5c-11,0 -14,-3 -6,-6z" id="svg_31" fill="#f5f5f5"/>
   <path d="m2955,970c-16,-7 -17,-9 -3,-9c9,-1 20,4 23,9c7,11 7,11 -20,0z" id="svg_32" fill="#f5f5f5"/>
   <path d="m2516,1067c3,-10 9,-15 12,-12c3,3 0,11 -7,18c-10,9 -11,8 -5,-6z" id="svg_33" fill="#f5f5f5"/>
   <path d="m2741,944c0,-11 3,-14 6,-6c3,7 2,16 -1,19c-3,4 -6,-2 -5,-13z" id="svg_34" fill="#f5f5f5"/>
   <path d="m2318,1013c7,-3 16,-2 19,1c4,3 -2,6 -13,5c-11,0 -14,-3 -6,-6z" id="svg_35" fill="#f5f5f5"/>
  </g>
 </g>

</svg>