<svg width="512" height="512" xmlns="http://www.w3.org/2000/svg" preserveAspectRatio="xMidYMid meet" version="1.0">

 <g>
  <title>Layer 1</title>
  <g id="svg_1" fill="#000000" transform="translate(0 512) scale(0.1 -0.1)">
   <path fill="#ffffff" id="svg_2" d="m4315,5105c-232,-35 -496,-111 -743,-216c-184,-79 -205,-92 -262,-169c-72,-98 -168,-259 -247,-415l-66,-130l7,71c7,78 41,205 86,322c16,42 28,77 27,79c-7,6 -454,-248 -479,-271c-84,-80 -169,-275 -212,-486c-3,-14 -3,18 -1,70c2,72 12,124 38,215c19,66 34,121 33,123c-5,4 -181,-114 -253,-170c-167,-128 -323,-275 -462,-433c-162,-184 -185,-221 -235,-370c-53,-159 -71,-369 -45,-550c6,-42 8,-79 5,-82c-9,-9 -38,47 -53,104c-8,32 -18,120 -22,197l-6,139l-125,-130c-188,-194 -333,-377 -423,-533c-61,-106 -133,-389 -187,-735c-27,-173 -28,-176 -42,-151c-11,20 -6,260 7,301c3,11 -3,2 -13,-20c-44,-96 -56,-164 -57,-322c0,-84 -1,-153 -3,-153c-19,0 -62,226 -62,324c0,25 -4,46 -8,46c-10,0 -44,-144 -73,-308c-25,-143 -31,-390 -10,-470c13,-51 13,-52 51,-52l38,0l56,105c227,424 750,1204 1123,1674c294,369 489,568 764,777c460,349 833,591 1309,848c274,149 439,256 640,417c114,92 331,277 360,307c9,9 -23,-11 -195,-123c-93,-61 -176,-115 -184,-120c-17,-10 4,27 92,160l59,90l-167,-165c-102,-100 -160,-151 -148,-130c11,19 60,103 108,185c48,83 90,153 92,158c5,9 2,8 -112,-8z"/>
   <path fill="#ffffff" id="svg_3" d="m4754,4869c-182,-193 -1000,-810 -1422,-1073c-868,-541 -1716,-1433 -2349,-2471c-117,-192 -233,-390 -233,-399c0,-4 34,-6 76,-6c57,0 82,5 102,18c44,30 116,57 342,127c219,68 357,121 458,177c121,67 329,214 318,226c-2,2 -49,-19 -103,-47c-107,-53 -271,-114 -341,-126c-23,-4 -108,-8 -190,-9c-101,-2 -180,-10 -252,-25c-123,-25 -110,-23 -110,-11c0,25 105,55 310,90c231,38 394,96 685,242c149,74 529,294 585,338c21,17 10,15 -64,-11c-188,-64 -226,-69 -511,-68c-288,2 -285,5 36,43c75,9 182,28 238,41c128,31 552,185 651,236c141,73 276,205 372,365c68,114 68,114 18,103c-90,-20 -314,-39 -471,-39c-133,0 -187,4 -265,21c-107,23 -316,31 -469,17c-97,-9 -75,3 60,34c76,17 120,20 285,19c281,-2 452,22 753,109c334,97 615,235 785,385c93,83 92,84 -65,63c-129,-17 -183,-18 -111,-3c49,11 217,79 306,125c80,41 83,46 17,30c-43,-11 -215,-38 -280,-44c-39,-4 -39,-4 10,10c123,36 273,87 330,113c110,50 251,205 330,361c37,74 76,184 65,188c-4,2 -50,-8 -102,-22c-133,-36 -288,-56 -419,-55c-150,1 -192,13 -82,22c111,10 281,41 383,71c97,29 297,125 328,159c20,21 77,137 67,137c-3,0 -44,-11 -92,-25c-91,-27 -306,-68 -403,-79c-43,-4 -30,1 56,24c128,33 236,73 382,141l102,48l0,85c0,47 -2,86 -4,86c-2,0 -32,-13 -67,-29c-69,-31 -259,-94 -265,-88c-2,2 68,50 155,106c88,57 165,109 171,117c18,20 3,85 -31,138c-15,25 -32,46 -37,46c-5,0 -21,-14 -38,-31z"/>
   <path fill="#ffffff" id="svg_4" d="m4480,4714c-19,-14 -276,-170 -570,-346c-736,-442 -991,-613 -1380,-923c-291,-232 -547,-496 -854,-880c-261,-327 -491,-651 -738,-1041c-171,-270 -452,-755 -442,-763c5,-5 23,-13 39,-19c17,-5 37,-13 46,-17c14,-5 23,9 47,74c47,122 275,511 489,834c615,928 1393,1724 2210,2260c87,57 230,150 318,207c270,173 719,496 840,604c47,41 45,45 -5,10z"/>
   <path fill="#ffffff" id="svg_5" d="m4660,1305c-310,-44 -550,-94 -835,-175c-363,-104 -592,-193 -1120,-435c-347,-160 -559,-246 -797,-326c-422,-140 -841,-222 -1291,-250c-182,-11 -227,-22 -227,-53c0,-27 30,-39 98,-37c257,4 667,54 957,116c401,86 717,196 1215,422c338,154 458,206 625,273c496,198 908,310 1394,380c222,32 253,43 216,79c-31,30 -58,31 -235,6z"/>
   <path fill="#ffffff" id="svg_6" d="m385,680c-11,-25 -15,-44 -9,-50c15,-14 194,-83 201,-76c3,3 14,23 24,45l17,39l-101,41c-56,23 -105,41 -108,41c-3,0 -14,-18 -24,-40z"/>
   <path fill="#ffffff" id="svg_7" d="m336,538c-7,-13 -37,-60 -65,-105l-51,-83l15,-62c18,-79 19,-149 2,-215l-14,-52l63,67c40,44 82,78 120,97c33,16 61,30 62,31c5,3 72,268 69,270c-3,3 -180,74 -184,74c-1,0 -9,-10 -17,-22zm64,-217c20,-39 -22,-82 -60,-61c-22,12 -27,49 -8,68c18,18 56,14 68,-7z"/>
  </g>
 </g>
</svg>