<svg width="512" height="512" xmlns="http://www.w3.org/2000/svg" preserveAspectRatio="xMidYMid meet" version="1.0">

 <g>
  <title>Layer 1</title>
  <g id="svg_1" fill="#000000" transform="translate(0 512) scale(0.1 -0.1)">
   <path fill="#ffffff" id="svg_2" d="m1169,4946c-160,-61 -458,-355 -735,-723c-110,-147 -196,-279 -241,-373l-37,-74l12,-101c92,-795 754,-1834 1642,-2576c627,-523 1303,-862 1860,-930c92,-12 97,-11 155,12c236,97 794,545 1005,808c134,167 154,248 92,374c-42,86 -87,125 -325,285c-483,326 -829,502 -984,502c-115,0 -180,-48 -368,-269c-66,-77 -126,-141 -133,-141c-22,0 -184,66 -281,114c-343,173 -631,427 -843,746c-79,118 -191,339 -227,446l-24,71l39,35c21,19 86,75 144,125c179,152 221,211 228,321c3,46 -1,80 -18,133c-31,95 -139,315 -240,484c-114,192 -360,562 -416,624c-81,90 -221,139 -305,107z"/>
  </g>
 </g>
</svg>