<svg width="200" height="307" xmlns="http://www.w3.org/2000/svg" xml:space="preserve" version="1.1">

 <g>
  <title>Layer 1</title>
  <path fill-opacity="0.9" fill="#f3edeb" id="svg_1" d="m96.89117,302.22559c-4,5.4 -10.6,6.7 -15.4,6.8c-5.7,0.2 -10.6,-1.2 -13,-2.2c6.2,-2.6 8.5,-6.4 10.9,-10.4c1.3,-2.2 2.6,-4.4 4.7,-6.6c1.6,-1.7 3.8,-2.7 6.2,-2.7c2.4,-0.1 4.6,0.8 6.3,2.4c4,3.7 2.9,9.2 0.3,12.7z"/>
  <path fill-opacity="0.9" fill="#f3edeb" stroke="null" id="svg_2" d="m139.29117,217.72559l-38.6,71.5c-0.5,-0.7 -1,-1.4 -1.7,-2c-2.3,-2.2 -5.3,-3.4 -8.5,-3.3l43.4,-69.3c0.8,-1.4 2.6,-1.9 4.1,-1.1l0.3,0.2c1.3,0.8 1.8,2.6 1,4z"/>
 </g>
</svg>