<svg width="400" height="700" xmlns="http://www.w3.org/2000/svg" version="1.0">
 <g>
  <title>Layer 1</title>
  <path d="m10.12686,145.72122c-5.37656,-4.77237 -2.40025,-12.35202 6.43267,-16.84367c2.97631,-1.40364 5.18454,-2.05867 9.02494,-1.96509c2.40025,0.09358 5.08853,1.40364 5.08853,1.40364c0,-16.93725 -0.09601,-48.94022 -0.09601,-64.66098c0.9601,0 1.63217,-0.09358 2.97631,-0.09358c0,0.93576 0,1.68437 0,2.43297c0,0.84218 0,1.31006 0.09601,1.87152c0.9601,5.89528 2.30424,8.23468 9.02494,15.44003c8.54489,9.26402 11.04115,14.785 11.04115,22.1775c-0.09601,6.92462 -6.33666,21.70962 -7.6808,21.14816c1.9202,-5.24025 4.60848,-10.85481 5.28055,-15.53361c0.86409,-5.70813 -1.53616,-13.75566 -5.37656,-17.96658c-3.07232,-3.55589 -10.36908,-6.64389 -12.38529,-6.64389c0,0 -0.09601,34.06164 -0.09601,46.97512c0,2.15225 -2.01621,5.98886 -3.16833,7.29892c-5.28055,6.17601 -15.55362,8.98329 -20.16209,4.95952l-0.00001,0.00002z" id="svg_1" fill="#7f7f7f" fill-opacity="0.08" stroke="null"/>
  <g transform="rotate(0.228747 166.962 635.967)" stroke="null" fill-opacity="0.08" id="svg_2" fill="#001550">
   <g stroke="null" id="svg_3">
    <path stroke="null" id="svg_4" d="m175.22586,607.34406c-1.82325,2.34505 -3.93877,4.30113 -6.3031,5.83236l-3.87092,2.60138c-5.91592,4.42966 -10.17268,8.00852 -12.65853,10.63568c-4.52774,4.77828 -7.01005,9.63241 -7.38436,14.42714c-0.41778,5.40789 1.41345,10.54076 5.44403,15.26001c4.27362,5.02863 9.66842,7.75481 16.03892,8.10455c1.45958,0.08145 3.05885,0.068 4.38893,-0.00561l-0.49717,-3.77539c-0.92693,0.07174 -1.90973,0.08333 -2.93955,0.02541c-4.18536,-0.23054 -7.92278,-1.68555 -11.11602,-4.3243c-3.33693,-2.74 -4.83199,-5.75987 -4.56234,-9.22924c0.50959,-6.57257 5.57132,-13.07937 15.04592,-19.35226l4.23237,-2.83939c3.72279,-2.68059 6.73773,-6.04983 8.96591,-10.02326c2.20466,-3.94428 3.49749,-8.21403 3.84652,-12.68928c0.20667,-2.6294 -0.22751,-5.89439 -1.27463,-9.70191c-1.4374,-5.17099 -3.48329,-7.75891 -6.26939,-7.91361c-0.9899,-0.05157 -2.07383,0.36842 -3.39637,1.3515c-3.2163,2.44668 -5.55402,5.41088 -6.95549,8.79655c-1.08127,2.58793 -1.7993,6.04908 -2.13104,10.28631c-0.13882,1.76365 0.13882,5.02116 0.80053,8.95349l3.92236,-3.06097c-0.01242,-0.44203 0.00221,-0.90162 0.04258,-1.38364c0.20667,-2.69815 1.01518,-5.62797 2.39227,-8.70352c1.75451,-3.84714 3.41011,-5.01032 4.49404,-5.30737c0.29626,-0.08145 0.58543,-0.11135 0.89366,-0.09491c1.41257,0.07922 2.81981,0.58252 2.57899,3.72869c-0.20313,2.66751 -1.45958,5.49271 -3.72811,8.4016l-0.00001,0z" fill="#4c4c4c"/>
    <path stroke="null" id="svg_5" d="m178.70029,662.52634c2.5404,-0.95954 4.71047,-2.42053 6.46453,-4.35344c2.24192,-2.45154 3.50236,-5.34923 3.75516,-8.61159c0.31932,-4.00519 -0.82225,-7.63673 -3.37818,-10.79672c-2.80384,-3.46153 -6.64371,-5.3496 -11.41804,-5.61452c-0.5464,-0.03026 -1.12783,-0.02802 -1.72746,0.00934l-1.02184,-6.42348l-4.28781,2.65743l0.65772,4.55634c-2.56745,0.89416 -4.80183,2.30544 -6.66012,4.20547c-2.13902,2.21352 -3.32984,4.64937 -3.53208,7.24215c-0.20667,2.6933 0.50648,5.16016 2.12084,7.31726c0.84045,1.15123 1.99887,2.17466 3.3254,3.0109c2.17583,1.36383 4.68474,1.26146 5.08213,0.5205c0.40181,-0.74095 -1.08881,-1.90376 -2.25744,-3.45555c-0.66615,-0.87846 -0.99434,-1.93291 -0.99434,-3.17494c0,-2.63538 1.88756,-4.90084 4.57565,-5.90335l2.51601,16.51959l0.58764,3.83293c0.38319,1.82081 0.76238,3.63378 1.12517,5.42545c0.4435,2.42427 0.59962,4.52569 0.46169,6.24562c-0.18583,2.38204 -1.06796,4.32841 -2.6251,5.78902c-0.99079,0.92853 -2.14834,1.51516 -3.45712,1.84025c1.75672,-1.48041 2.84464,-3.52355 2.84464,-5.78341c0,-4.51187 -4.3428,-8.17255 -9.69946,-8.17255c-1.48707,0 -2.8788,0.30341 -4.13746,0.80672c-0.15966,0.05792 -0.31001,0.14498 -0.46745,0.21448c-0.34549,0.1588 -0.69142,0.31761 -1.01385,0.50891c-0.11044,0.06987 -0.21599,0.15059 -0.32464,0.22606c-2.16785,1.42586 -3.5884,3.59305 -3.71436,6.06402c0,0.00373 -0.00488,0.00785 -0.00488,0.01158c0,0.00187 0,0.00373 0,0.00598c-0.00577,0.1162 -0.03992,0.22045 -0.03992,0.33479c0,0.09678 0.02971,0.18384 0.0346,0.27651c-0.00488,2.64697 1.3008,4.92438 3.92014,6.76986c2.47654,1.74347 5.44491,2.7202 8.8222,2.9059c1.91904,0.10462 3.77201,-0.08108 5.50257,-0.55488c1.41434,-0.38898 2.783,-0.97897 4.05763,-1.75131c3.0868,-1.87649 4.76768,-4.32841 4.99919,-7.2982c0.17696,-2.26546 0.04169,-4.9453 -0.41557,-8.00029l-1.25866,-6.88606l-3.17373,-19.7659c3.54094,0.57244 6.22105,3.19213 6.22105,6.34015c0,2.23669 -0.85907,5.76585 -2.4619,7.61357l0.99745,5.29542l0.00001,0z" fill="#4c4c4c"/>
   </g>
  </g>
  <g id="svg_6" fill-opacity="0.08" stroke="null">
   <g id="svg_7" stroke="null">
    <title fill="#4c4c4c" stroke="null">1114</title>
    <g id="svg_8" fill="none" fill-rule="evenodd" stroke="null">
     <path id="svg_9" d="m214.17065,82.80302l0,50.08588c-2.91097,-0.19108 -6.11252,0.2839 -9.29851,1.64332c-8.32819,3.54325 -13.14348,11.27942 -10.76178,17.26309c2.41284,6.00004 11.09906,7.96548 19.42205,4.41677c6.39791,-2.72977 10.15987,-7.91634 10.72546,-12.89545l-0.03632,-48.50807l36.64402,-7.41952l0,34.82099c-3.10296,-0.34395 -6.61066,0.14195 -10.08722,1.62149c-8.32819,3.54871 -13.1383,11.28488 -10.7514,17.26855c2.40246,5.99458 11.08868,7.96548 19.41687,4.41677c6.39791,-2.73523 10.8448,-7.9218 11.42077,-12.89545l0.05708,-61.75293l-56.751,11.93457l0,0l-0.00002,-0.00001z" fill="#4c4c4c" class="si-glyph-fill" stroke="null"/>
    </g>
   </g>
  </g>
  <g id="svg_10" fill-opacity="0.08" stroke="null">
   <g id="svg_11" transform="translate(0 512) scale(0.1 -0.1)" fill="#000000" stroke="null">
    <path id="svg_12" d="m3773.65021,2066.73672c-4.06466,-2.61981 -20.83136,-17.02873 -36.83594,-31.96162c-16.00458,-14.93289 -31.50108,-29.34182 -34.54958,-31.96162c-5.08082,-4.71565 -5.5889,-4.71565 -18.29095,2.09584c-11.1778,6.02555 -13.97225,6.54951 -21.59348,3.92971c-19.30712,-6.54951 -27.18239,-26.46003 -17.27479,-43.75075c4.57274,-8.1214 5.08082,-10.21724 2.28637,-13.09903c-1.77829,-1.83386 -83.83353,-78.0702 -182.40144,-169.5014l-179.0989,-166.09565l-10.92376,4.71565c-18.79903,8.38338 -56.90518,17.81468 -81.8012,20.1725c-82.81737,8.38338 -164.11049,-20.1725 -224.57224,-78.33218c-29.21471,-28.2939 -30.73896,-39.82104 -7.62123,-65.49513c23.62581,-26.72201 32.00917,-52.39611 26.42026,-81.99991c-5.84294,-30.38974 -21.33944,-51.61016 -47.75971,-64.97117c-14.98842,-7.59744 -19.30712,-8.64536 -38.61423,-8.64536c-18.03691,0 -23.87985,1.04792 -36.07382,7.07347c-19.8152,9.4313 -34.80362,25.93607 -45.72738,49.51432c-7.36719,15.98081 -10.92376,20.69646 -18.03691,24.10221c-11.93993,5.76357 -13.21013,5.76357 -32.26321,-3.66773c-42.17081,-20.43448 -96.28154,-67.59098 -125.24221,-109.24588c-28.96067,-41.6549 -51.06224,-93.78903 -61.986,-147.23306c-6.35102,-31.17568 -6.35102,-100.07656 0,-130.99026c10.16164,-49.51432 28.70663,-95.88487 54.11073,-135.18195c8.63739,-13.62299 13.21013,-23.31627 12.19397,-25.15013c-1.2702,-1.83386 -17.02075,-24.10221 -35.56574,-49.7763c-18.54499,-25.41211 -34.29553,-48.72838 -35.3117,-51.87214c-6.60507,-21.22042 16.25862,-44.79867 36.83594,-37.98718c3.04849,1.04792 25.65814,17.29071 50.30012,36.41529c24.89602,19.12458 46.4895,35.36737 48.26779,36.67727c1.77829,1.04792 11.1778,-3.66773 24.13389,-12.31308c84.84969,-57.8977 185.19589,-75.97435 282.49359,-50.30026c93.48709,24.36419 175.03425,90.38328 222.03183,179.45666c17.52883,33.27153 13.46417,46.37055 -18.79903,61.56542c-21.33944,9.95526 -36.07382,24.10221 -46.23546,43.75075c-6.35102,12.31308 -7.11315,16.76675 -7.11315,38.77312c0,29.07984 4.57274,42.17886 21.59348,61.30344c19.8152,22.26834 44.45717,32.2236 72.65573,29.6038c20.83136,-2.09584 37.85211,-10.7412 57.15922,-29.34182c23.62581,-22.26834 34.29553,-21.4824 59.44559,4.97763c38.36019,40.345 64.78045,91.16922 76.2123,146.97108c10.16164,49.7763 6.85911,105.31617 -9.14548,152.47267c-4.3187,12.57507 -8.38335,25.41211 -8.89143,28.2939c-1.01616,3.92971 35.81978,47.68046 157.75946,187.31608c87.64414,100.07656 161.06199,184.17231 163.6024,186.79212c4.3187,4.71565 4.82678,4.45367 13.97225,-1.04792c16.76671,-10.21724 36.07382,-2.09584 42.42485,17.81468c2.54041,7.85942 2.03233,10.7412 -3.81061,22.26834c-5.84294,11.52714 -6.35102,13.88497 -3.30253,17.5527c2.03233,2.35782 16.51266,18.8626 32.26321,36.93925c46.74354,53.96799 46.74354,52.39611 -0.50808,101.64844c-42.93293,44.53669 -49.79204,48.20442 -66.81278,37.7252l-0.00001,-0.00001zm24.13389,-97.19478c-4.3187,-5.23961 -13.71821,-16.50477 -21.33944,-25.15013l-13.97225,-15.71883l-11.68589,11.78912c-6.35102,6.28753 -11.1778,12.57507 -10.92376,13.62299c0.50808,1.04792 10.92376,11.52714 23.37177,23.05429l22.60965,21.22042l9.65356,-9.69328l9.65356,-9.69328l-7.36719,-9.4313l-0.00001,0zm-89.16839,-72.04465l13.71821,-14.40893l-12.44801,-14.40893c-75.45018,-88.28744 -394.01759,-451.91641 -396.04992,-451.91641c-3.30253,-0.26198 -72.40168,70.99672 -72.14764,74.40247c0,2.61981 449.39853,420.21677 451.93894,420.47875c0.76212,0 7.62123,-6.28753 14.98842,-14.14695zm-495.63399,-320.14021c10.66972,-2.09584 20.32328,-4.97763 21.33944,-5.76357c1.01616,-1.04792 -8.63739,-11.26516 -21.0854,-22.79231c-37.34403,-34.05747 -45.47334,-44.01273 -45.47334,-55.80185c0,-14.40893 5.84294,-21.74438 72.65573,-90.1213c38.61423,-39.0351 60.7158,-59.99354 65.54258,-61.30344c16.00458,-3.92971 23.87985,1.04792 53.85669,35.10539c15.75054,17.81468 29.7228,32.48559 30.73896,32.74757c5.08082,1.3099 11.68589,-36.67727 11.68589,-68.90088c0.25404,-58.15968 -13.71821,-99.02864 -51.82436,-152.99663c-1.01616,-1.3099 -8.38335,2.09584 -16.51266,7.07347c-23.62581,14.93289 -50.04608,22.79231 -75.70422,22.79231c-44.71122,0 -75.45018,-12.83705 -105.9351,-44.27471c-29.97684,-30.9137 -43.94909,-65.49513 -43.44101,-108.72192c0.50808,-51.87214 22.86369,-93.52705 67.32086,-126.01263c4.3187,-3.14377 3.81061,-4.45367 -7.11315,-20.43448c-25.65814,-37.98718 -65.0345,-72.56861 -107.96742,-94.83695c-42.42485,-21.74438 -81.03908,-30.9137 -132.10132,-30.65172c-36.5819,0 -57.15922,3.40575 -90.4386,14.93289c-27.18239,9.4313 -72.14764,33.27153 -72.14764,38.51114c0,0.78594 21.59348,18.07666 48.01375,38.24916c26.42026,20.1725 49.79204,39.55906 52.0784,42.70283c2.28637,3.40575 4.06466,11.26516 4.06466,17.81468c0,11.78912 -0.25404,12.31308 -37.59807,50.56224c-37.08999,38.51114 -37.59807,38.77312 -49.02991,38.77312c-6.09698,0 -13.97225,-1.83386 -17.02075,-4.19169c-3.30253,-2.35782 -21.33944,-25.67409 -40.39252,-51.61016c-19.05307,-26.19805 -35.56574,-48.72838 -36.5819,-50.03828c-3.04849,-3.40575 -7.62123,3.14377 -22.35561,32.48559c-23.11773,46.37055 -31.24704,81.99991 -31.24704,134.91997c0.25404,80.69 25.91218,148.019 78.49867,205.91669c18.29095,19.91052 53.34861,49.51432 58.68347,49.51432c1.2702,0 6.85911,-6.28753 12.44801,-13.88497c17.78287,-23.84023 48.77587,-44.79867 78.75271,-52.92007c19.05307,-5.23961 53.09457,-4.97763 72.90977,0.26198c40.9006,11.00318 77.22846,41.39292 95.01133,79.90406c11.68589,25.41211 15.75054,42.44085 15.75054,67.329c0,29.6038 -8.89143,58.15968 -27.18239,87.5015c-4.3187,7.07347 -4.3187,7.33545 0.50808,11.26516c32.00917,25.41211 72.40168,43.75075 107.96742,49.51432c17.52883,2.61981 65.54258,1.3099 83.32545,-2.61981l0,-0.00002zm-427.04292,-638.70853c-5.84294,-4.71565 -15.24246,-11.78912 -20.83136,-16.24279l-10.16164,-7.59744l8.38335,11.78912c4.82678,6.54951 11.68589,16.24279 15.24246,21.4824l6.85911,9.69328l5.5889,-5.50159l5.5889,-5.50159l-10.66972,-8.1214l0,0.00001z" fill="#4c4c4c" stroke="null"/>
    <path id="svg_13" d="m2889.33349,1215.03803c-8.38335,-3.66773 -15.75054,-14.93289 -17.52883,-27.24597c-3.30253,-19.64854 -12.19397,-28.2939 -33.27937,-31.69964c-20.06924,-3.40575 -30.73896,-23.84023 -22.35561,-42.17886c16.76671,-36.41529 86.37394,-11.78912 106.95126,37.7252c5.33486,13.09903 8.12931,33.79549 5.5889,43.48877c-1.2702,4.45367 -5.08082,11.00318 -8.38335,14.14695c-6.60507,6.54951 -22.60965,9.4313 -30.993,5.76357l0,-0.00002z" fill="#4c4c4c" stroke="null"/>
    <path id="svg_14" d="m3005.17619,1094.265c-41.15464,-7.07347 -73.67189,-45.06065 -73.67189,-86.19159c0,-14.67091 5.5889,-24.88815 16.51266,-30.12776c17.78287,-8.64536 37.59807,2.35782 40.9006,23.05429c3.30253,21.74438 11.68589,30.9137 31.24704,34.31945c28.19855,4.97763 37.59807,37.7252 15.4965,53.96799c-8.38335,6.02555 -16.51266,7.33545 -30.48492,4.97763l0.00001,-0.00001z" fill="#4c4c4c" stroke="null"/>
   </g>
  </g>
  <g id="svg_15" fill-opacity="0.08" stroke="null">
   <g id="svg_16" transform="translate(0 512) scale(0.1 -0.1)" fill="#000000" stroke="null">
    <path id="svg_17" d="m1394.48102,2065.51532c-4.21497,-2.7137 -21.60174,-17.63906 -38.1982,-33.10715c-16.59646,-15.4681 -32.66604,-30.39345 -35.82727,-33.10715c-5.26872,-4.88466 -5.79559,-4.88466 -18.96738,2.17096c-11.59118,6.24151 -14.48897,6.78425 -22.39205,4.07055c-20.02112,-6.78425 -28.18763,-27.40838 -17.91364,-45.31881c4.74185,-8.41247 5.26872,-10.58343 2.37092,-13.5685c-1.84405,-1.89959 -86.93383,-80.86829 -189.14693,-175.57645l-185.72226,-172.04864l-11.32774,4.88466c-19.49425,8.68384 -59.00963,18.45317 -84.82634,20.8955c-85.88008,8.68384 -170.17955,-20.8955 -232.87728,-81.13966c-30.29512,-29.30797 -31.87574,-41.24826 -7.90308,-67.84252c24.49953,-27.67975 33.19292,-54.27402 27.39733,-84.93884c-6.05902,-31.47893 -22.12861,-53.45991 -49.52594,-67.29978c-15.54271,-7.86973 -20.02112,-8.95521 -40.04225,-8.95521c-18.70394,0 -24.76297,1.08548 -37.40789,7.32699c-20.548,9.76932 -36.09071,26.86564 -47.41845,51.28895c-7.63964,16.55358 -11.32774,21.43824 -18.70394,24.96605c-12.38148,5.97014 -13.69866,5.97014 -33.45635,-3.79918c-43.73035,-21.16687 -99.84218,-70.01349 -129.87387,-113.16133c-30.03169,-43.14785 -52.9506,-97.1505 -64.27834,-152.51c-6.5859,-32.29304 -6.5859,-103.66338 0,-135.68505c10.53743,-51.28895 29.76825,-99.32146 56.11183,-140.02697c8.95682,-14.11125 13.69866,-24.15194 12.64492,-26.05153c-1.31718,-1.89959 -17.6502,-24.96605 -36.88102,-51.56032c-19.23082,-26.3229 -35.56384,-50.47484 -36.61758,-53.73128c-6.84933,-21.98098 16.85989,-46.40429 38.1982,-39.34866c3.16123,1.08548 26.60702,17.91043 52.1603,37.72044c25.81671,19.81002 48.20876,36.63496 50.05281,37.99181c1.84405,1.08548 11.59118,-3.79918 25.0264,-12.75439c87.98757,-59.97279 192.04472,-78.69733 292.94065,-52.10306c96.94439,25.23742 181.50729,93.62268 230.24292,185.88852c18.17707,34.464 13.9621,48.03251 -19.49425,63.77197c-22.12861,10.31206 -37.40789,24.96605 -47.94532,45.31881c-6.5859,12.75439 -7.3762,17.36769 -7.3762,40.16277c0,30.12208 4.74185,43.69059 22.39205,63.5006c20.548,23.06646 46.10127,33.37852 75.34265,30.66482c21.60174,-2.17096 39.25194,-11.12617 59.27306,-30.39345c24.49953,-23.06646 35.56384,-22.25235 61.64399,5.15603c39.77881,41.791 67.17614,94.43679 79.03075,152.23863c10.53743,51.56032 7.11277,109.09078 -9.48369,157.9374c-4.47841,13.02576 -8.69338,26.3229 -9.22025,29.30797c-1.05374,4.07055 37.14445,49.38936 163.59365,194.02962c90.88536,103.66338 167.01832,190.77318 169.65268,193.48688c4.47841,4.88466 5.00528,4.61329 14.48897,-1.08548c17.38677,-10.58343 37.40789,-2.17096 43.99378,18.45317c2.63436,8.1411 2.10749,11.12617 -3.95154,23.06646c-6.05902,11.94028 -6.5859,14.38262 -3.42467,18.1818c2.10749,2.44233 17.12333,19.53865 33.45635,38.26318c48.47219,55.90224 48.47219,54.27402 -0.52687,105.2916c-44.52066,46.13292 -51.63342,49.9321 -69.28362,39.07729l0,-0.00002zm25.0264,-100.67831c-4.47841,-5.4274 -14.22554,-17.09632 -22.12861,-26.05153l-14.48897,-16.28221l-12.11805,12.21165c-6.5859,6.51288 -11.59118,13.02576 -11.32774,14.11125c0.52687,1.08548 11.32774,11.94028 24.2361,23.88057l23.44579,21.98098l10.01056,-10.04069l10.01056,-10.04069l-7.63964,-9.76932l0,-0.00001zm-92.46598,-74.62678l14.22554,-14.92536l-12.90836,-14.92536c-78.24044,-91.45172 -408.58898,-468.11342 -410.69647,-468.11342c-3.42467,-0.27137 -75.07921,73.5413 -74.81578,77.06911c0,2.7137 466.01799,435.27764 468.65235,435.54901c0.79031,0 7.90308,-6.51288 15.54271,-14.65399l0.00001,0.00001zm-513.96332,-331.61426c11.06431,-2.17096 21.07487,-5.15603 22.12861,-5.97014c1.05374,-1.08548 -8.95682,-11.66891 -21.86517,-23.6092c-38.72507,-35.27811 -47.15501,-45.59018 -47.15501,-57.80183c0,-14.92536 6.05902,-22.52372 75.34265,-93.35131c40.04225,-40.43414 62.96116,-62.14375 67.96645,-63.5006c16.59646,-4.07055 24.76297,1.08548 55.8484,36.36359c16.33302,18.45317 30.82199,33.64989 31.87574,33.92126c5.26872,1.35685 12.11805,-37.99181 12.11805,-71.37034c0.26344,-60.24416 -14.22554,-102.5779 -53.74091,-158.48014c-1.05374,-1.35685 -8.69338,2.17096 -17.12333,7.32699c-24.49953,15.4681 -51.89686,23.6092 -78.50388,23.6092c-46.36471,0 -78.24044,-13.29713 -109.85274,-45.86155c-31.08543,-32.02167 -45.5744,-67.84252 -45.04753,-112.61859c0.52687,-53.73128 23.70923,-96.87913 69.8105,-130.52902c4.47841,-3.25644 3.95154,-4.61329 -7.3762,-21.16687c-26.60702,-39.34866 -67.43957,-75.16952 -111.96023,-98.23598c-43.99378,-22.52372 -84.03603,-32.02167 -136.98663,-31.7503c-37.93476,0 -59.27306,3.52781 -93.78316,15.4681c-28.18763,9.76932 -74.81578,34.464 -74.81578,39.8914c0,0.81411 22.39205,18.72454 49.78937,39.62003c27.39733,20.8955 51.63342,40.97689 54.00435,44.23333c2.37092,3.52781 4.21497,11.66891 4.21497,18.45317c0,12.21165 -0.26344,12.75439 -38.9885,52.37443c-38.46163,39.8914 -38.9885,40.16277 -50.84312,40.16277c-6.32246,0 -14.48897,-1.89959 -17.6502,-4.34192c-3.42467,-2.44233 -22.12861,-26.59427 -41.8863,-53.45991c-19.75769,-27.13701 -36.88102,-50.47484 -37.93476,-51.83169c-3.16123,-3.52781 -7.90308,3.25644 -23.18235,33.64989c-23.97266,48.03251 -32.40261,84.93884 -32.40261,139.7556c0.26344,83.58199 26.87046,153.32411 81.40167,213.2969c18.96738,20.62413 55.32153,51.28895 60.85368,51.28895c1.31718,0 7.11277,-6.51288 12.90836,-14.38262c18.44051,-24.69468 50.57968,-46.40429 81.66511,-54.81676c19.75769,-5.4274 55.05809,-5.15603 75.60608,0.27137c42.41317,11.39754 80.08449,42.87648 98.525,82.76788c12.11805,26.3229 16.33302,43.96196 16.33302,69.74212c0,30.66482 -9.22025,60.24416 -28.18763,90.63761c-4.47841,7.32699 -4.47841,7.59836 0.52687,11.66891c33.19292,26.3229 75.07921,45.31881 111.96023,51.28895c18.17707,2.7137 67.96645,1.35685 86.40695,-2.7137l-0.00002,0.00002zm-442.83564,-661.6003c-6.05902,-4.88466 -15.80615,-12.21165 -21.60174,-16.82495l-10.53743,-7.86973l8.69338,12.21165c5.00528,6.78425 12.11805,16.82495 15.80615,22.25235l7.11277,10.04069l5.79559,-5.69877l5.79559,-5.69877l-11.06431,-8.41247z" fill="#4c4c4c" stroke="null"/>
    <path id="svg_18" d="m477.46088,1183.29112c-8.69338,-3.79918 -16.33302,-15.4681 -18.17707,-28.22249c-3.42467,-20.35276 -12.64492,-29.30797 -34.51009,-32.83578c-20.81143,-3.52781 -31.87574,-24.69468 -23.18235,-43.69059c17.38677,-37.72044 89.56818,-12.21165 110.90649,39.07729c5.53215,13.5685 8.42995,35.00674 5.79559,45.04744c-1.31718,4.61329 -5.26872,11.39754 -8.69338,14.65399c-6.84933,6.78425 -23.44579,9.76932 -32.13917,5.97014l-0.00002,0z" fill="#4c4c4c" stroke="null"/>
    <path id="svg_19" d="m597.58762,1058.18951c-42.67661,-7.32699 -76.39639,-46.67566 -76.39639,-89.28076c0,-15.19673 5.79559,-25.78016 17.12333,-31.20756c18.44051,-8.95521 38.9885,2.44233 42.41317,23.88057c3.42467,22.52372 12.11805,32.02167 32.40261,35.54948c29.24138,5.15603 38.9885,39.07729 16.06959,55.90224c-8.69338,6.24151 -17.12333,7.59836 -31.6123,5.15603l-0.00001,0z" fill="#4c4c4c" stroke="null"/>
   </g>
  </g>
 </g>

</svg>