<svg width="400" height="820" xmlns="http://www.w3.org/2000/svg" version="1.0">
 <g id="Layer_1">
  <title>Layer 1</title>
  <g transform="rotate(23.6665 176.5 787)" stroke="null" id="svg_1">
   <g stroke="null" id="svg_2">
    <path stroke="null" fill="#ffffff" d="m234.06151,834.83359l-40.24914,-73.06189c-1.2635,-2.29356 -1.9312,-4.86162 -1.9312,-7.42616l0,-28.47585c0,-1.37749 1.23468,-2.49811 2.75238,-2.49811c0.00227,0 0.00421,-0.00029 0.00648,-0.00029s0.00389,0.00029 0.00615,0.00029c1.34122,0 2.42857,-0.9869 2.42857,-2.20422s-1.08735,-2.20422 -2.42857,-2.20422l-0.01295,0l-36.26661,0c-1.34122,0 -2.42857,0.9869 -2.42857,2.20422s1.08735,2.20422 2.42857,2.20422c1.51769,0 2.75238,1.12062 2.75238,2.49811l0,28.47615c0,2.56453 -0.66802,5.1323 -1.93152,7.42616l-40.24881,73.0616c-2.40169,4.35906 -2.14977,9.4364 0.6732,13.58239c2.82264,4.14599 7.71378,6.62088 13.0835,6.62088l87.60879,0c5.36972,0 10.26086,-2.4749 13.08383,-6.62088c2.82329,-4.14569 3.07489,-9.22333 0.67352,-13.58239l0,-0.00001zm-4.805,11.26473c-1.93152,2.83639 -5.27809,4.53011 -8.95202,4.53011l-87.60912,0c-3.67394,0 -7.0205,-1.69343 -8.95202,-4.53011c-1.93152,-2.83668 -2.10379,-6.31082 -0.46078,-9.29328l40.24914,-73.06189c1.59897,-2.90251 2.44443,-6.15241 2.44443,-9.39761l0,-28.47585c0,-0.88051 -0.1823,-1.72311 -0.51486,-2.49811l22.07762,0c-0.33255,0.775 -0.51486,1.6176 -0.51486,2.49811l0,28.47615c0,3.2452 0.84514,6.4951 2.44411,9.39761l40.24914,73.06189c1.64301,2.98245 1.47074,6.4566 -0.46078,9.29298z" id="svg_3"/>
    <path stroke="null" fill="#ffffff" d="m208.53468,809.52594c-0.41156,-0.74679 -1.25217,-1.21849 -2.17211,-1.21849l-59.72495,0c-0.91994,0 -1.76087,0.4717 -2.17211,1.21849l-16.2591,29.51389c-0.79527,1.44391 -0.71497,3.05945 0.21987,4.43195c0.93484,1.37279 2.49106,2.16043 4.2691,2.16043l87.60912,0c1.77836,0 3.33426,-0.78764 4.26942,-2.16043c0.93516,-1.37279 1.01514,-2.98833 0.21987,-4.43224l-16.2591,-29.5136l-0.00001,0zm11.90743,31.62818c-0.02817,0.04173 -0.05181,0.06436 -0.04436,0.06201c-0.00615,0.00147 -0.03432,0.00764 -0.09358,0.00764l-87.60879,0c-0.04404,0 -0.07091,-0.00353 -0.07966,-0.00353c-0.00097,0 -0.00194,0 -0.00227,0.00029c-0.01004,-0.00882 -0.03076,-0.02998 -0.05602,-0.06701c-0.02785,-0.04085 -0.03886,-0.07112 -0.04112,-0.06319c0.0013,-0.00588 0.00777,-0.03115 0.03432,-0.07935l15.58784,-28.29511l56.72324,0l15.58752,28.29511c0.02234,0.04085 0.03076,0.06554 0.03368,0.06818c-0.00421,0.01176 -0.01587,0.03821 -0.0408,0.07494l0,0.00002z" id="svg_4"/>
    <path stroke="null" fill="#ffffff" d="m160.9571,822.41444c-0.6379,0 -1.26609,0.23512 -1.71619,0.64657c-0.45333,0.40852 -0.71238,0.97867 -0.71238,1.55765c0,0.57897 0.25905,1.14913 0.71238,1.55765c0.45009,0.41145 1.07828,0.64657 1.71619,0.64657c0.6379,0 1.26609,-0.23512 1.71619,-0.64657c0.45333,-0.40852 0.71238,-0.97867 0.71238,-1.55765c0,-0.57897 -0.25905,-1.14913 -0.71238,-1.55765c-0.45009,-0.41145 -1.07828,-0.64657 -1.71619,-0.64657z" id="svg_5"/>
    <path stroke="null" fill="#ffffff" d="m176.49993,829.46794c-0.6379,0 -1.26609,0.23512 -1.71619,0.64657c-0.45333,0.40852 -0.71238,0.97867 -0.71238,1.55765c0,0.57897 0.25905,1.14913 0.71238,1.55765c0.45009,0.41145 1.07828,0.64657 1.71619,0.64657c0.6379,0 1.26609,-0.23512 1.71619,-0.64657c0.45333,-0.40852 0.71238,-0.97867 0.71238,-1.55765c0,-0.57897 -0.25905,-1.14913 -0.71238,-1.55765c-0.45009,-0.41145 -1.07828,-0.64657 -1.71619,-0.64657z" id="svg_6"/>
    <path stroke="null" fill="#ffffff" d="m179.96468,797.19819c-0.45333,0.40852 -0.71238,0.97867 -0.71238,1.55765c0,0.57897 0.25905,1.14913 0.71238,1.55765c0.45009,0.41145 1.07828,0.64657 1.71619,0.64657c0.6379,0 1.26609,-0.23512 1.71619,-0.64657c0.45333,-0.40852 0.71238,-0.97867 0.71238,-1.55765c0,-0.57897 -0.25905,-1.14913 -0.71238,-1.55765c-0.45009,-0.41145 -1.07828,-0.64657 -1.71619,-0.64657c-0.6379,0 -1.26609,0.23512 -1.71619,0.64657z" id="svg_7"/>
    <path stroke="null" fill="#ffffff" d="m171.31898,782.15073c0.6379,0 1.26609,-0.23512 1.71619,-0.64657c0.45333,-0.40852 0.71238,-0.97867 0.71238,-1.55765c0,-0.57897 -0.25905,-1.14913 -0.71238,-1.55765c-0.45009,-0.41145 -1.07828,-0.64657 -1.71619,-0.64657c-0.6379,0 -1.26609,0.23512 -1.71619,0.64657c-0.45333,0.40852 -0.71238,0.97573 -0.71238,1.55765s0.25905,1.14913 0.71238,1.55765c0.45009,0.41145 1.07828,0.64657 1.71619,0.64657z" id="svg_8"/>
    <path stroke="null" fill="#ffffff" d="m192.04276,820.06327c-0.6379,0 -1.26609,0.23512 -1.71619,0.64657c-0.45333,0.40852 -0.71238,0.97867 -0.71238,1.55765c0,0.57897 0.25905,1.14913 0.71238,1.55765c0.45009,0.41145 1.07828,0.64657 1.71619,0.64657c0.6379,0 1.26609,-0.23512 1.71619,-0.64657c0.45333,-0.40852 0.71238,-0.97867 0.71238,-1.55765c0,-0.57897 -0.25905,-1.14913 -0.71238,-1.55765c-0.45009,-0.41145 -1.07828,-0.64657 -1.71619,-0.64657z" id="svg_9"/>
    <path stroke="null" fill="#ffffff" d="m180.20009,767.9491l17.4491,31.67402c0.42549,0.77236 1.28293,1.21879 2.17405,1.21879c0.36493,0 0.73537,-0.07494 1.08411,-0.23306c1.19971,-0.54429 1.68607,-1.8683 1.08606,-2.95718l-17.4491,-31.67402c-0.59969,-1.08888 -2.05845,-1.53061 -3.25817,-0.98573c-1.19971,0.54429 -1.68607,1.86859 -1.08606,2.95718l0.00001,0z" id="svg_10"/>
    <path stroke="null" fill="#ffffff" d="m179.47865,760.992c0.12758,0 0.2571,-0.00911 0.38695,-0.02792c1.32438,-0.1925 2.22619,-1.32282 2.01409,-2.52515c-0.23929,-1.35603 -0.36072,-2.73323 -0.36072,-4.09309c0,-1.21732 -1.08735,-2.20422 -2.42857,-2.20422s-2.42857,0.9869 -2.42857,2.20422c0,1.59262 0.14183,3.20435 0.4216,4.79021c0.19137,1.08389 1.22303,1.85595 2.39522,1.85595z" id="svg_11"/>
   </g>
  </g>
  <g fill-opacity="0.3" stroke="null" id="svg_12">
   <g stroke="null" transform="matrix(0.823365 0.414792 -0.426033 0.801641 155.432 39.1547)" id="svg_13">
    <path fill="#ffffff" stroke="null" d="m122.50857,315.64862l-44.78777,-87.53037c-1.40598,-2.74776 -2.14897,-5.82437 -2.14897,-8.89676l0,-34.11494c0,-1.65027 1.37391,-2.99282 3.06274,-2.99282c0.00252,0 0.00468,-0.00035 0.00721,-0.00035s0.00432,0.00035 0.00685,0.00035c1.49246,0 2.70242,-1.18234 2.70242,-2.64072s-1.20996,-2.64072 -2.70242,-2.64072l-0.01441,0l-40.35616,0c-1.49246,0 -2.70242,1.18234 -2.70242,2.64072s1.20996,2.64072 2.70242,2.64072c1.68883,0 3.06274,1.34254 3.06274,2.99282l0,34.11529c0,3.07239 -0.74335,6.14865 -2.14933,8.89676l-44.78741,87.53002c-2.67251,5.22229 -2.39218,11.3051 0.74911,16.27212c3.14093,4.96702 8.58361,7.93202 14.55885,7.93202l97.48787,0c5.97523,0 11.41791,-2.965 14.55921,-7.93202c3.14166,-4.96667 3.42163,-11.04983 0.74947,-16.27212zm-5.34683,13.49549c-2.14933,3.39808 -5.87326,5.42721 -9.96149,5.42721l-97.48824,0c-4.08822,0 -7.81216,-2.02878 -9.96149,-5.42721c-2.14933,-3.39843 -2.34102,-7.56056 -0.51274,-11.13363l44.78777,-87.53037c1.77927,-3.4773 2.72008,-7.37078 2.72008,-11.25862l0,-34.11494c0,-1.05488 -0.20286,-2.06434 -0.57291,-2.99282l24.56717,0c-0.37005,0.92848 -0.57291,1.93794 -0.57291,2.99282l0,34.11529c0,3.88784 0.94044,7.78132 2.71972,11.25862l44.78777,87.53037c1.82828,3.57307 1.63659,7.7352 -0.51274,11.13328l0.00001,0z" id="svg_14"/>
    <path fill="#ffffff" stroke="null" d="m94.10324,285.32928c-0.45797,-0.89468 -1.39337,-1.45979 -2.41705,-1.45979l-66.45975,0c-1.02368,0 -1.95944,0.56511 -2.41705,1.45979l-18.09253,35.35854c-0.88495,1.72985 -0.79559,3.66532 0.24466,5.30961c1.04025,1.64464 2.77196,2.58826 4.7505,2.58826l97.48824,0c1.97889,0 3.71024,-0.94362 4.75086,-2.58826c1.04061,-1.64464 1.12961,-3.58011 0.24466,-5.30996l-18.09253,-35.35819l-0.00001,0zm13.25015,37.89152c-0.03135,0.05 -0.05765,0.07711 -0.04936,0.07429c-0.00685,0.00176 -0.03819,0.00915 -0.10413,0.00915l-97.48787,0c-0.049,0 -0.07891,-0.00423 -0.08864,-0.00423c-0.00108,0 -0.00216,0 -0.00252,0.00035c-0.01117,-0.01056 -0.03423,-0.03591 -0.06234,-0.08028c-0.03099,-0.04894 -0.04324,-0.08521 -0.04576,-0.0757c0.00144,-0.00704 0.00865,-0.03732 0.03819,-0.09507l17.34558,-33.8984l63.11956,0l17.34522,33.8984c0.02486,0.04894 0.03423,0.07852 0.03747,0.08169c-0.00468,0.01408 -0.01766,0.04577 -0.0454,0.08978l0,0.00002z" id="svg_15"/>
    <path fill="#ffffff" stroke="null" d="m41.16064,300.7701c-0.70984,0 -1.40886,0.28168 -1.90971,0.77461c-0.50445,0.48941 -0.79271,1.17248 -0.79271,1.86611c0,0.69363 0.28826,1.3767 0.79271,1.86611c0.50085,0.49293 1.19988,0.77461 1.90971,0.77461c0.70984,0 1.40886,-0.28168 1.90971,-0.77461c0.50445,-0.48941 0.79271,-1.17248 0.79271,-1.86611c0,-0.69363 -0.28826,-1.3767 -0.79271,-1.86611c-0.50085,-0.49293 -1.19988,-0.77461 -1.90971,-0.77461z" id="svg_16"/>
    <path fill="#ffffff" stroke="null" d="m58.45613,309.22041c-0.70984,0 -1.40886,0.28168 -1.90971,0.77461c-0.50445,0.48941 -0.79271,1.17248 -0.79271,1.86611c0,0.69363 0.28826,1.3767 0.79271,1.86611c0.50085,0.49293 1.19988,0.77461 1.90971,0.77461c0.70984,0 1.40886,-0.28168 1.90971,-0.77461c0.50445,-0.48941 0.79271,-1.17248 0.79271,-1.86611c0,-0.69363 -0.28826,-1.3767 -0.79271,-1.86611c-0.50085,-0.49293 -1.19988,-0.77461 -1.90971,-0.77461z" id="svg_17"/>
    <path fill="#ffffff" stroke="null" d="m62.31159,270.56026c-0.50445,0.48941 -0.79271,1.17248 -0.79271,1.86611c0,0.69363 0.28826,1.3767 0.79271,1.86611c0.50085,0.49293 1.19988,0.77461 1.90971,0.77461c0.70984,0 1.40886,-0.28168 1.90971,-0.77461c0.50445,-0.48941 0.79271,-1.17248 0.79271,-1.86611c0,-0.69363 -0.28826,-1.3767 -0.79271,-1.86611c-0.50085,-0.49293 -1.19988,-0.77461 -1.90971,-0.77461c-0.70984,0 -1.40886,0.28168 -1.90971,0.77461z" id="svg_18"/>
    <path fill="#ffffff" stroke="null" d="m52.69097,252.53294c0.70984,0 1.40886,-0.28168 1.90971,-0.77461c0.50445,-0.48941 0.79271,-1.17248 0.79271,-1.86611c0,-0.69363 -0.28826,-1.3767 -0.79271,-1.86611c-0.50085,-0.49293 -1.19988,-0.77461 -1.90971,-0.77461c-0.70984,0 -1.40886,0.28168 -1.90971,0.77461c-0.50445,0.48941 -0.79271,1.16896 -0.79271,1.86611s0.28826,1.3767 0.79271,1.86611c0.50085,0.49293 1.19988,0.77461 1.90971,0.77461z" id="svg_19"/>
    <path fill="#ffffff" stroke="null" d="m75.75163,297.95333c-0.70984,0 -1.40886,0.28168 -1.90971,0.77461c-0.50445,0.48941 -0.79271,1.17248 -0.79271,1.86611c0,0.69363 0.28826,1.3767 0.79271,1.86611c0.50085,0.49293 1.19988,0.77461 1.90971,0.77461c0.70984,0 1.40886,-0.28168 1.90971,-0.77461c0.50445,-0.48941 0.79271,-1.17248 0.79271,-1.86611c0,-0.69363 -0.28826,-1.3767 -0.79271,-1.86611c-0.50085,-0.49293 -1.19988,-0.77461 -1.90971,-0.77461z" id="svg_20"/>
    <path fill="#ffffff" stroke="null" d="m62.57354,235.51896l19.41672,37.94645c0.47346,0.92531 1.4276,1.46014 2.41921,1.46014c0.40608,0 0.81829,-0.08978 1.20636,-0.27921c1.335,-0.65208 1.8762,-2.23827 1.20852,-3.54279l-19.41672,-37.94645c-0.66732,-1.30452 -2.29057,-1.83372 -3.62557,-1.18093c-1.335,0.65208 -1.8762,2.23863 -1.20852,3.54279z" id="svg_21"/>
    <path fill="#ffffff" stroke="null" d="m61.77074,227.18414c0.14197,0 0.2861,-0.01091 0.43059,-0.03345c1.47372,-0.23062 2.47722,-1.58478 2.24121,-3.02521c-0.26628,-1.62457 -0.4014,-3.27449 -0.4014,-4.90364c0,-1.45838 -1.20996,-2.64072 -2.70242,-2.64072s-2.70242,1.18234 -2.70242,2.64072c0,1.90801 0.15782,3.8389 0.46914,5.73881c0.21295,1.29853 1.36094,2.22349 2.66531,2.22349l-0.00001,0z" id="svg_22"/>
   </g>
  </g>
 </g>

</svg>