<svg width="400" height="720" xmlns="http://www.w3.org/2000/svg" version="1.0">
 <g id="Layer_1">
  <title>Layer 1</title>
  <g stroke="null">
   <g stroke="null" fill="#000000" transform="translate(0 512) scale(0.1 -0.1)">
    <path fill="#ffffff" stroke="null" d="m1878.75248,3259.21208c-0.61304,-1.58076 -3.88256,-17.58594 -7.56078,-35.56707c-31.26484,-153.13599 -66.2079,-219.13266 -138.54617,-261.41796c-40.46038,-23.71138 -105.03352,-43.86605 -194.5368,-60.66161c-18.59543,-3.35911 -35.1474,-6.71822 -36.78217,-7.31101c-1.63476,-0.59278 14.09983,-4.54468 35.1474,-8.49658c130.78104,-25.48973 194.5368,-50.58428 239.49278,-94.05514c42.29949,-40.90213 70.29481,-107.68918 94.20322,-223.47975c3.88256,-19.36429 7.76512,-37.34542 8.37816,-40.11175c0.81738,-3.16152 4.29125,9.28696 10.01292,36.55504c26.76924,127.25107 50.47331,183.56559 95.83798,227.43165c45.36467,43.66846 101.764,65.99667 233.97546,92.67197c23.09103,4.54468 40.66473,8.89177 39.02997,9.48455c-1.63476,0.59278 -20.02585,4.34709 -40.86908,8.29898c-120.76812,23.11859 -189.01947,49.99149 -232.13635,91.684c-43.93426,42.28529 -68.86439,100.77336 -94.81625,222.49177c-5.31298,25.09454 -10.21727,44.06365 -10.8303,42.48289z"/>
    <path fill="#ffffff" stroke="null" d="m2295.41271,2733.60984c-22.27365,-101.56374 -33.92133,-131.40056 -62.73403,-161.03978c-27.99532,-28.45366 -63.34707,-43.07567 -146.92433,-60.26642c-16.14328,-3.35911 -29.63008,-6.32303 -30.03877,-6.71822c-0.40869,-0.39519 12.05638,-2.96392 27.38228,-5.92784c74.99475,-14.22683 118.52032,-31.21998 146.10694,-57.1049c28.19966,-26.6753 44.54729,-63.82313 60.07754,-136.53803c3.88256,-18.37632 7.35643,-33.78872 7.56078,-34.1839c0.40869,-0.19759 4.08691,15.80759 8.37816,35.56707c17.16501,80.0259 38.21259,122.3112 73.15564,146.22017c28.8127,19.75948 63.34707,32.01036 123.62895,44.06365c20.43454,4.14949 36.98651,7.7062 36.78217,8.10139c-0.40869,0.19759 -16.34763,3.55671 -35.35175,7.31101c-75.1991,15.01721 -113.61603,30.82479 -141.20266,58.09288c-26.5649,26.47771 -43.11687,65.40389 -57.82974,136.14284c-7.56078,35.56707 -7.15209,34.77669 -8.9912,26.28011z"/>
   </g>
  </g>
  <g stroke="null">
   <g stroke="null" fill="#000000" transform="translate(0 512) scale(0.1 -0.1)">
    <path stroke="null" fill="#ffffff" d="m1591.50337,-711.35002c-10.27033,-4.90081 -23.9641,-16.33605 -29.09927,-25.0486c-5.70574,-8.71256 -83.87436,-172.61755 -174.59561,-363.74929c-90.15067,-191.67627 -166.037,-347.41325 -168.3193,-346.86871c-2.2823,1.08907 -61.62198,64.25511 -132.37314,140.49c-70.18059,76.77942 -135.79659,145.93535 -146.06692,154.10337c-35.37558,28.31581 -85.58608,24.50407 -118.67937,-8.16802c-17.68779,-17.96965 -798.80345,-1067.28834 -831.32616,-1116.84102c-29.09927,-44.65186 -19.39951,-93.66 25.10525,-122.52035l18.82894,-11.97977l1218.74583,1.08907c1208.4755,1.6336 1218.74583,1.6336 1234.15132,12.5243c23.9641,16.33605 41.08132,53.36442 37.0873,80.59116c-1.71172,15.79151 -131.23199,270.0893 -404.53689,793.93184c-220.8121,424.7372 -406.24861,778.14033 -411.95435,785.76382c-22.82296,33.76116 -75.88633,45.74093 -116.96765,26.68221z"/>
   </g>
  </g>
 </g>

</svg>