<?xml version="1.0" standalone="no"?>
<!DOCTYPE svg PUBLIC "-//W3C//DTD SVG 20010904//EN"
 "http://www.w3.org/TR/2001/REC-SVG-20010904/DTD/svg10.dtd">
<svg xmlns="http://www.w3.org/2000/svg" width="1706.667" height="853.333" version="1.0" viewBox="0 0 1280 640">
  <g fill="#313542">
    <path d="M65.8 254.6C26.5 261.7-2.1 292.9.4 326.1c1 13.8 6.7 25.3 17.8 35.4 12.5 11.4 28.3 16.9 42.1 14.6 3.9-.7 9.8-2.5 13.1-4.1 6.6-3.2 14.9-9.8 16.8-13.3 1-2.1 1-2.1-.8-.5-3.5 3.1-14.5 7.6-21.6 8.9-20.8 3.7-39.6-5.8-49-24.9-3-6.1-3.3-7.4-3.3-16.2 0-8.6.3-10.1 3.1-16 6.3-13.3 19.2-23.9 35.1-29 12.8-4.1 20.8-5.3 35.8-5.3 26.6 0 54.3 9.2 82.8 27.5 5.3 3.5 21.4 13.8 35.7 23.1 14.3 9.2 26.6 17 27.5 17.3.8.3 3.4 3.4 5.9 6.8 10.8 15.2 30.1 28.6 46.8 32.6 15.8 3.8 44.2 3 68.8-2 27.5-5.5 48.2-12.5 101-34 49.7-20.2 67-26.3 88.5-31.1 49.8-11.2 76.8-11.8 100.1-2.1 4 1.7 9.7 4.6 12.9 6.7 3.1 2 5.9 3.4 6.1 3.2 1-1-16-16.9-23.1-21.5-15.7-10.3-30.8-14.5-52-14.6-25.4 0-46.3 5.9-111.5 31.4-78.4 30.7-97.2 37.3-124.5 44.1-48 11.8-78.2 6.5-100.4-17.7-7.1-7.8-14.3-21.2-16.1-30.1-3.6-17.2 4.7-35 17.1-36.9 2.4-.4 4.8.2 7.9 1.8 8.9 4.5 13.2 19.7 9.6 33.8-.9 3.6-2.4 7.6-3.3 9-1.2 1.9-.7 1.7 2.1-1 2.1-1.9 5.2-6.4 6.9-10 2.9-5.9 3.2-7.3 3.2-16 0-8.1-.4-10.3-2.6-15-5.4-11.6-15.5-18.9-24.4-17.6-11.4 1.5-20.6 10.8-26 26.5-2.7 7.5-3.5 18.6-2.1 26.6l.7 4.1-13.8-13.6c-15.4-15.1-24.5-21.3-48.3-33.1-29.5-14.7-53.4-21-79-20.8-6.9 0-15.9.7-20.2 1.5z"/>
    <path d="M932 262.6c-21.6 2.5-39.2 6.1-59.6 12-19.4 5.6-30.8 9.7-78.9 28.1-51.3 19.8-69.1 25.5-94.5 30.7-53.2 10.7-75.3 10.8-101.2.5-4.3-1.7-10.3-4.6-13.4-6.5-3.1-1.9-5.9-3.4-6.2-3.4-.4 0 2.3 3 5.8 6.6 15.7 15.8 32.5 24.8 54.6 28.9 6.8 1.3 12.3 1.6 23.4 1.2 28.4-1 47.8-6.7 145.5-43.2 95.8-35.7 137.7-44.7 170-36.5 25.2 6.4 45.3 24.3 52.9 47.2 5.4 16 1.4 31.9-9.9 39.3-8.2 5.4-18.8 1.7-23.6-8.2-4.3-9-3.5-25.6 1.9-34.2 1.2-2 .5-1.6-2.7 1.4-2.3 2.2-5.6 6.9-7.4 10.5-2.8 5.7-3.2 7.4-3.2 15 0 7.4.4 9.3 3.1 15 5.9 12.5 15 18.6 26.3 17.8 10.7-.8 20-9.2 26.4-24 3-6.8 3.2-8.1 3.2-19.3 0-9.7-.4-13.1-2.1-17.8-1.2-3.1-2-5.7-2-5.7.1 0 5.1 4.8 11.1 10.6 13.5 12.9 19.3 17.5 31.5 24.6 27.5 16.1 55.5 26.8 81.5 31.3 14.7 2.6 36.1 2.4 49.3-.4 23-4.8 41.5-15.5 52.7-30.3 21.7-28.6 16.5-61.4-12.8-80.5-9.8-6.4-16.4-8.5-27.9-9.1-14.8-.7-25.5 3.2-36.7 13.3-4.6 4.2-5.5 6.6-1.3 3.5 4.5-3.3 14.8-7 22.8-8.1 21.6-3 40.1 6.5 50.2 25.6 2.4 4.4 2.7 6.1 2.7 15 0 9.3-.2 10.5-3.3 16.6-2.2 4.7-5.3 8.6-10.1 13.1-8.4 8-15.5 12.1-26.3 15.4-39.6 11.9-81.8 4.1-126.3-23.2-30.1-18.5-48.1-29.4-59.5-36-6.9-4-15.4-9.7-19-12.7-14.6-12.1-25.3-18-39.5-21.8-6.4-1.6-11.7-2.1-26-2.4-9.9-.2-19.6-.1-21.5.1z"/>
  </g>
</svg>
