<svg width="512" height="512" xmlns="http://www.w3.org/2000/svg" version="1.0" preserveAspectRatio="xMidYMid meet">
 <g>
  <title>Layer 1</title>
  <g transform="translate(0 512) scale(0.1 -0.1)" fill="#000000" id="svg_1">
   <path d="m4560,4715c-107,-35 -1111,-366 -2230,-735c-1119,-368 -2067,-682 -2107,-696c-90,-32 -152,-85 -190,-162c-37,-76 -39,-181 -5,-257c26,-56 81,-118 127,-143c17,-8 279,-125 583,-258c305,-133 556,-244 558,-246c2,-2 80,-359 174,-793c93,-433 178,-804 188,-824c41,-78 128,-103 207,-58c22,13 230,166 462,340l422,316l488,-399c268,-220 510,-411 537,-426c65,-36 153,-43 232,-18c82,25 173,115 197,194c9,30 220,919 468,1975c495,2108 469,1977 416,2082c-34,67 -111,135 -177,156c-90,29 -137,23 -350,-48zm255,-262c-4,-16 -207,-878 -451,-1917c-244,-1039 -446,-1892 -449,-1894c-3,-3 -13,2 -22,10c-10,8 -355,291 -768,628c-412,337 -754,616 -758,620c-4,4 344,375 775,825c431,450 793,834 805,854c39,62 27,136 -31,190c-20,19 -40,26 -84,28l-57,4l-1177,-654l-1176,-654l-562,245c-308,135 -557,249 -552,254c8,8 4478,1486 4501,1487c9,1 11,-6 6,-26zm-1805,-1427c0,-2 -223,-237 -496,-523c-273,-285 -502,-531 -510,-548c-8,-16 -53,-167 -100,-335c-47,-168 -89,-308 -93,-313c-7,-6 -204,883 -205,926c-1,13 170,113 699,407c385,214 701,390 703,390c1,0 2,-2 2,-4zm-632,-1524c68,-55 123,-103 123,-107c0,-8 -435,-335 -439,-330c-3,3 136,504 154,554c4,11 7,11 22,-1c9,-8 72,-60 140,-116z" id="svg_2" fill="#f5f5f5"/>
  </g>
 </g>

</svg>