<svg width="512" height="512" xmlns="http://www.w3.org/2000/svg" preserveAspectRatio="xMidYMid meet" version="1.0">

 <g>
  <title>Layer 1</title>
  <g id="svg_1" fill="#000000" transform="translate(0 512) scale(0.1 -0.1)">
   <path fill="#ffffff" id="svg_2" d="m1398,4664c-29,-15 -33,-26 -42,-108c-18,-156 -157,-294 -312,-312c-83,-9 -93,-13 -110,-45c-33,-64 6,-113 96,-122c167,-15 310,-155 326,-319c7,-69 20,-94 55,-109c22,-9 36,-9 58,0c35,15 48,40 55,109c16,159 154,299 312,318c72,8 101,22 115,56c10,24 9,35 -4,63c-17,36 -25,39 -111,49c-155,18 -294,156 -312,312c-9,83 -13,93 -44,109c-36,18 -47,18 -82,-1z"/>
   <path fill="#ffffff" id="svg_3" d="m2588,4661c-107,-35 -179,-98 -227,-200l-26,-56l3,-275c3,-218 0,-290 -12,-348c-44,-212 -355,-840 -494,-998l-48,-55l33,-67c18,-37 38,-92 43,-123c7,-37 10,-376 8,-960l-3,-904l-28,-65c-45,-103 -47,-94 35,-124c40,-14 93,-30 118,-36c28,-6 425,-10 1045,-10c870,0 1009,2 1060,15c208,54 352,265 316,463c-7,36 -21,83 -32,105c-10,23 -19,42 -19,43c0,2 20,15 44,29c61,36 132,115 164,183c24,51 27,69 27,167c0,91 -4,118 -21,155l-21,46l50,29c212,127 257,413 96,616l-31,39l30,37c206,263 79,643 -243,729c-39,11 -186,14 -678,14l-628,0l-24,25c-32,31 -31,43 6,151c34,100 102,374 119,477c16,102 14,292 -5,378c-9,41 -37,117 -63,169c-39,81 -59,108 -137,185c-168,167 -301,215 -457,166z"/>
   <path fill="#ffffff" id="svg_4" d="m4118,4664c-29,-15 -33,-26 -42,-108c-18,-156 -157,-294 -312,-312c-83,-9 -93,-13 -110,-45c-33,-64 6,-113 96,-122c167,-15 310,-155 326,-319c7,-69 20,-94 55,-109c22,-9 36,-9 58,0c35,15 48,40 55,109c16,159 154,299 312,318c72,8 101,22 115,56c10,24 9,35 -4,63c-17,36 -25,39 -111,49c-155,18 -294,156 -312,312c-9,83 -13,93 -44,109c-36,18 -47,18 -82,-1z"/>
   <path fill="#ffffff" id="svg_5" d="m365,2779c-47,-26 -45,21 -45,-1166l0,-1124l25,-25l25,-25l542,3l543,3l57,28c83,41 153,121 178,205c20,65 20,87 18,957l-3,890l-28,60c-36,78 -95,137 -171,172l-61,28l-530,2c-375,2 -536,0 -550,-8z"/>
  </g>
 </g>
</svg>