<svg width="512" height="512" xmlns="http://www.w3.org/2000/svg" preserveAspectRatio="xMidYMid meet" version="1.0">

 <g>
  <title>Layer 1</title>
  <g id="svg_1" fill="#000000" transform="translate(0 512) scale(0.1 -0.1)">
   <path fill="#999999" id="svg_2" d="m2465,4030c-26,-12 -240,-220 -592,-572c-576,-577 -592,-596 -593,-678c0,-122 99,-221 221,-220c80,1 106,23 592,508l467,467l468,-467c485,-485 511,-507 591,-508c121,-1 222,100 221,221c-1,81 -19,102 -593,677c-365,366 -566,559 -593,572c-53,26 -136,26 -189,0z"/>
   <path fill="#999999" id="svg_3" d="m2475,2541c-56,-27 -1158,-1132 -1180,-1183c-70,-170 110,-344 283,-273c25,11 186,164 510,488l472,472l473,-472c323,-324 484,-477 509,-488c138,-57 298,48 298,195c0,84 7,77 -588,674c-384,384 -580,574 -607,587c-51,24 -119,24 -170,0z"/>
  </g>
 </g>
</svg>