<?xml version="1.0" standalone="no"?>
<!DOCTYPE svg PUBLIC "-//W3C//DTD SVG 20010904//EN"
 "http://www.w3.org/TR/2001/REC-SVG-20010904/DTD/svg10.dtd">
<svg version="1.0" xmlns="http://www.w3.org/2000/svg"
 width="512.000000pt" height="512.000000pt" viewBox="0 0 512.000000 512.000000"
 preserveAspectRatio="xMidYMid meet">

<g transform="translate(0.000000,512.000000) scale(0.100000,-0.100000)"
fill="#000000" stroke="none">
<path d="M2465 4030 c-26 -12 -240 -220 -592 -572 -576 -577 -592 -596 -593
-678 0 -122 99 -221 221 -220 80 1 106 23 592 508 l467 467 468 -467 c485
-485 511 -507 591 -508 121 -1 222 100 221 221 -1 81 -19 102 -593 677 -365
366 -566 559 -593 572 -53 26 -136 26 -189 0z"/>
<path d="M2475 2541 c-56 -27 -1158 -1132 -1180 -1183 -70 -170 110 -344 283
-273 25 11 186 164 510 488 l472 472 473 -472 c323 -324 484 -477 509 -488
138 -57 298 48 298 195 0 84 7 77 -588 674 -384 384 -580 574 -607 587 -51 24
-119 24 -170 0z"/>
</g>
</svg>
