<?xml version="1.0" standalone="no"?>
<!DOCTYPE svg PUBLIC "-//W3C//DTD SVG 20010904//EN"
 "http://www.w3.org/TR/2001/REC-SVG-20010904/DTD/svg10.dtd">
<svg version="1.0" xmlns="http://www.w3.org/2000/svg"
 width="512.000000pt" height="512.000000pt" viewBox="0 0 512.000000 512.000000"
 preserveAspectRatio="xMidYMid meet">

<g transform="translate(0.000000,512.000000) scale(0.100000,-0.100000)"
fill="#000000" stroke="none">
<path d="M4715 5102 c-16 -10 -82 -65 -145 -122 -63 -57 -124 -112 -136 -122
-20 -18 -22 -18 -72 8 -44 23 -55 25 -85 15 -76 -25 -107 -101 -68 -167 18
-31 20 -39 9 -50 -7 -7 -330 -298 -718 -647 l-705 -634 -43 18 c-74 32 -224
68 -322 77 -326 32 -646 -77 -884 -299 -115 -108 -121 -152 -30 -250 93 -102
126 -200 104 -313 -23 -116 -84 -197 -188 -248 -59 -29 -76 -33 -152 -33 -71
0 -94 4 -142 27 -78 36 -137 99 -180 189 -29 61 -43 79 -71 92 -47 22 -52 22
-127 -14 -166 -78 -379 -258 -493 -417 -114 -159 -201 -358 -244 -562 -25
-119 -25 -382 0 -500 40 -189 113 -366 213 -516 34 -52 52 -89 48 -96 -5 -7
-67 -92 -140 -190 -73 -97 -135 -186 -139 -198 -26 -81 64 -171 145 -145 12 4
101 66 198 139 98 73 183 135 190 140 7 4 44 -14 95 -47 334 -221 729 -290
1112 -192 368 93 689 345 874 685 69 127 53 177 -74 235 -84 38 -142 92 -182
167 -25 47 -28 64 -28 148 0 111 18 161 85 234 78 85 175 123 286 113 82 -8
149 -41 225 -112 93 -85 135 -82 234 19 151 154 255 348 300 561 40 190 27
402 -36 582 -17 48 -33 97 -35 108 -4 15 141 182 621 715 345 382 634 703 644
713 17 18 19 17 55 -4 66 -39 142 -8 167 68 10 30 8 41 -15 85 -23 44 -25 53
-13 67 8 9 65 72 127 141 184 206 184 200 -2 388 -169 170 -196 184 -263 144z
m95 -371 c-17 -20 -54 -63 -84 -96 l-55 -60 -46 45 c-25 24 -44 48 -43 52 2 4
43 44 92 88 l89 81 38 -37 38 -37 -29 -36z m-351 -275 l54 -55 -49 -55 c-297
-337 -1551 -1725 -1559 -1725 -13 -1 -285 271 -284 284 0 10 1769 1604 1779
1605 3 0 30 -24 59 -54z m-1951 -1222 c42 -8 80 -19 84 -22 4 -4 -34 -43 -83
-87 -147 -130 -179 -168 -179 -213 0 -55 23 -83 286 -344 152 -149 239 -229
258 -234 63 -15 94 4 212 134 62 68 117 124 121 125 20 5 46 -140 46 -263 1
-222 -54 -378 -204 -584 -4 -5 -33 8 -65 27 -93 57 -197 87 -298 87 -176 0
-297 -49 -417 -169 -118 -118 -173 -250 -171 -415 2 -198 90 -357 265 -481 17
-12 15 -17 -28 -78 -101 -145 -256 -277 -425 -362 -167 -83 -319 -118 -520
-117 -144 0 -225 13 -356 57 -107 36 -284 127 -284 147 0 3 85 69 189 146 104
77 196 151 205 163 9 13 16 43 16 68 0 45 -1 47 -148 193 -146 147 -148 148
-193 148 -24 0 -55 -7 -67 -16 -13 -9 -84 -98 -159 -197 -75 -100 -140 -186
-144 -191 -12 -13 -30 12 -88 124 -91 177 -123 313 -123 515 1 308 102 565
309 786 72 76 210 189 231 189 5 0 27 -24 49 -53 70 -91 192 -171 310 -202 75
-20 209 -19 287 1 161 42 304 158 374 305 46 97 62 162 62 257 0 113 -35 222
-107 334 -17 27 -17 28 2 43 126 97 285 167 425 189 69 10 258 5 328 -10z
m-1681 -2438 c-23 -18 -60 -45 -82 -62 l-40 -29 33 45 c19 25 46 62 60 82 l27
37 22 -21 22 -21 -42 -31z"/>
<path d="M1234 1851 c-33 -14 -62 -57 -69 -104 -13 -75 -48 -108 -131 -121
-79 -13 -121 -91 -88 -161 66 -139 340 -45 421 144 21 50 32 129 22 166 -5 17
-20 42 -33 54 -26 25 -89 36 -122 22z"/>
<path d="M1690 1390 c-162 -27 -290 -172 -290 -329 0 -56 22 -95 65 -115 70
-33 148 9 161 88 13 83 46 118 123 131 111 19 148 144 61 206 -33 23 -65 28
-120 19z"/>
</g>
</svg>
