<svg width="512" height="512" xmlns="http://www.w3.org/2000/svg" style="vector-effect: non-scaling-stroke;" stroke="null" version="1.0" preserveAspectRatio="xMidYMid meet">
 <g stroke="null">
  <title stroke="null">Layer 1</title>
  <g stroke="null" transform="translate(0 512) scale(0.1 -0.1)" fill="#000000" id="svg_1">
   <path stroke="null" d="m221,4267.25391c-67,-18.90172 -110,-46.2042 -150,-94.5086c-99,-117.6107 -91,-279.32542 29,-656.30972c173,-542.8994 478,-1132.00301 815,-1574.09324c432,-567.0516 883,-887.33074 1400,-993.3904c126,-26.25239 422,-26.25239 519,-1.0501c162,43.05392 251,119.71089 281,243.62217c4,17.85162 7,151.21376 6,296.12695c-1,145.96328 1,281.42561 5,302.42752l6,36.75334l57,-31.50287c122,-68.25621 289,-228.92083 538,-515.59692c186,-214.21949 242,-267.77437 333,-312.92848l75,-37.80344l365,0c432,0 438,1.0501 532,99.75908c45,48.3044 60,72.45659 74,120.76099c64,232.07112 -95,509.29634 -647,1125.70244c-109,121.81108 -199,225.77054 -199,228.92083c0,4.20038 44,73.50669 99,155.41414c208,312.92848 429,696.21335 541,936.68524c99,212.1193 114,263.57398 115,383.28488c0,116.56061 -18,162.76481 -86,224.72045c-80,71.4065 -100,74.55678 -504,74.55678c-353,0 -361,0 -417,-24.1522c-33,-13.65124 -82,-47.2543 -113,-77.70707c-57,-53.55487 -63,-65.10592 -175,-321.32924c-148,-336.03058 -341,-669.96096 -506,-875.77969c-107,-132.31204 -98,-170.11548 -91,407.43708c7,646.85886 0,714.06498 -92,812.77396c-78,85.05774 -79,85.05774 -638,81.90745l-479,-3.15029l-59,-31.50287c-104,-55.65506 -166,-173.26577 -151,-286.67609c8,-61.95564 44,-143.86309 94,-214.21949c22,-30.45277 49,-74.55678 60,-97.65889c44,-93.4585 46,-116.56061 47,-564.95141l0,-429.48908l-39,46.2042c-56,66.15602 -193,286.67609 -275,445.24052c-104,199.51816 -208,441.04013 -296,686.76249c-107,301.37742 -138,352.83211 -253,411.63746l-67,34.65315l-350,2.10019c-284,2.10019 -360,0 -404,-13.65124zm691,-337.08067c9,-10.50096 30,-58.80535 46,-108.15984c153,-453.64128 364,-898.8818 572,-1209.71008c81,-121.81108 237,-286.67609 309,-327.62981c115,-65.10592 256,-43.05392 321,50.40459c64,90.30822 65,103.95946 65,678.36173c0,469.39271 -2,528.19806 -19,603.80494c-19,90.30822 -72,219.46997 -109,271.97475c-13,17.85162 -27,38.85354 -31,46.2042c-6,9.45086 70,12.60115 363,12.60115l371,0l0,-527.14797c1,-290.87647 5,-575.45236 9,-633.20762c10,-123.91128 37,-200.56825 88,-247.82255c46,-42.00382 76,-53.55487 144,-52.50478c148,0 323,136.51242 504,391.68564c169,238.37169 333,535.54873 477,861.07836c43,99.75908 87,187.9671 96,195.31777c12,9.45086 87,12.60115 294,12.60115c216,0 278,-3.15029 278,-12.60115c0,-7.35067 -16,-53.55487 -35,-101.85927c-66,-168.01529 -283,-551.30017 -519,-914.63323c-166,-255.17322 -200,-327.62981 -199,-418.98813c1,-123.91128 20,-154.36405 271,-434.73956c227,-253.07303 375,-432.63937 463,-562.85122c58,-86.10784 129,-215.26959 129,-234.17131c0,-5.25048 -131,-8.40076 -292,-8.40076l-291,0l-43,26.25239c-23,14.70134 -106,99.75908 -185,191.11739c-349,406.38698 -579,608.00533 -762,666.81068c-99,31.50287 -224,24.1522 -290,-16.80153c-26,-15.75143 -58,-46.2042 -72,-67.20612c-49,-77.70707 -57,-140.7128 -62,-471.4929c-5,-270.92465 -7,-307.678 -22,-312.92848c-9,-4.20038 -70,-9.45086 -136,-12.60115c-580,-27.30248 -1164,376.9843 -1664,1151.95482c-317,492.49482 -589,1115.20148 -655,1499.53645l-5,33.60306l288,0c262,0 289,-2.10019 303,-17.85162z" id="svg_2" fill="#f5f5f5"/>
  </g>
 </g>

</svg>