<?xml version="1.0" standalone="no"?>
<!DOCTYPE svg PUBLIC "-//W3C//DTD SVG 20010904//EN"
 "http://www.w3.org/TR/2001/REC-SVG-20010904/DTD/svg10.dtd">
<svg version="1.0" xmlns="http://www.w3.org/2000/svg"
 width="512.000000pt" height="512.000000pt" viewBox="0 0 512.000000 512.000000"
 preserveAspectRatio="xMidYMid meet">

<g transform="translate(0.000000,512.000000) scale(0.100000,-0.100000)"
fill="#000000" stroke="none">
<path d="M221 4144 c-67 -18 -110 -44 -150 -90 -99 -112 -91 -266 29 -625 173
-517 478 -1078 815 -1499 432 -540 883 -845 1400 -946 126 -25 422 -25 519 -1
162 41 251 114 281 232 4 17 7 144 6 282 -1 139 1 268 5 288 l6 35 57 -30
c122 -65 289 -218 538 -491 186 -204 242 -255 333 -298 l75 -36 365 0 c432 0
438 1 532 95 45 46 60 69 74 115 64 221 -95 485 -647 1072 -109 116 -199 215
-199 218 0 4 44 70 99 148 208 298 429 663 541 892 99 202 114 251 115 365 0
111 -18 155 -86 214 -80 68 -100 71 -504 71 -353 0 -361 0 -417 -23 -33 -13
-82 -45 -113 -74 -57 -51 -63 -62 -175 -306 -148 -320 -341 -638 -506 -834
-107 -126 -98 -162 -91 388 7 616 0 680 -92 774 -78 81 -79 81 -638 78 l-479
-3 -59 -30 c-104 -53 -166 -165 -151 -273 8 -59 44 -137 94 -204 22 -29 49
-71 60 -93 44 -89 46 -111 47 -538 l0 -409 -39 44 c-56 63 -193 273 -275 424
-104 190 -208 420 -296 654 -107 287 -138 336 -253 392 l-67 33 -350 2 c-284
2 -360 0 -404 -13z m691 -321 c9 -10 30 -56 46 -103 153 -432 364 -856 572
-1152 81 -116 237 -273 309 -312 115 -62 256 -41 321 48 64 86 65 99 65 646 0
447 -2 503 -19 575 -19 86 -72 209 -109 259 -13 17 -27 37 -31 44 -6 9 70 12
363 12 l371 0 0 -502 c1 -277 5 -548 9 -603 10 -118 37 -191 88 -236 46 -40
76 -51 144 -50 148 0 323 130 504 373 169 227 333 510 477 820 43 95 87 179
96 186 12 9 87 12 294 12 216 0 278 -3 278 -12 0 -7 -16 -51 -35 -97 -66 -160
-283 -525 -519 -871 -166 -243 -200 -312 -199 -399 1 -118 20 -147 271 -414
227 -241 375 -412 463 -536 58 -82 129 -205 129 -223 0 -5 -131 -8 -292 -8
l-291 0 -43 25 c-23 14 -106 95 -185 182 -349 387 -579 579 -762 635 -99 30
-224 23 -290 -16 -26 -15 -58 -44 -72 -64 -49 -74 -57 -134 -62 -449 -5 -258
-7 -293 -22 -298 -9 -4 -70 -9 -136 -12 -580 -26 -1164 359 -1664 1097 -317
469 -589 1062 -655 1428 l-5 32 288 0 c262 0 289 -2 303 -17z"/>
</g>
</svg>
